<svg width="1920" height="548" viewBox="0 0 1920 548" fill="none" xmlns="http://www.w3.org/2000/svg">
<g opacity="0.3">
<path d="M648.673 547.273C639.202 547.273 629.983 546.827 621.124 545.935C602.543 544.064 585.378 540.222 570.102 534.517C553.684 528.386 539.284 520.032 527.299 509.688C503.212 488.896 491.161 463.996 479.506 439.916C477.216 435.187 474.849 430.298 472.445 425.554C456.045 393.221 435.255 364.898 408.892 338.969C356.303 287.243 282.344 243.1 195.009 211.31C94.0064 174.548 -14.5879 156.235 -110.772 159.746C-167.304 161.811 -241.999 181.444 -275.382 214.975C-295.193 234.876 -296.791 256.959 -279.999 278.836L-280.332 278.929C-289.137 267.455 -292.973 255.953 -291.731 244.742C-290.591 234.457 -285.198 224.404 -275.697 214.861C-260.587 199.683 -235.668 186.23 -203.633 175.956C-174.032 166.464 -141.063 160.628 -110.794 159.523C-60.4578 157.687 -6.92279 161.762 48.3233 171.637C98.4032 180.59 147.82 193.873 195.199 211.119C282.586 242.926 356.589 287.094 409.208 338.85C435.585 364.797 456.386 393.135 472.797 425.486C475.204 430.23 477.571 435.121 479.857 439.85C491.502 463.913 503.545 488.795 527.6 509.556C550.862 529.636 582.351 541.801 621.186 545.71C674.966 551.126 740.274 539.8 795.879 515.411C876.011 480.267 931.624 429.112 985.408 379.643C994.836 370.972 1004.58 362.006 1014.23 353.348C1039.29 330.865 1073.22 301.733 1113.55 275.779C1154.77 249.25 1196.65 229.76 1241.6 216.19C1269.12 207.885 1298.28 202.289 1328.27 199.559C1355.97 197.037 1385.3 196.88 1415.43 199.09C1467.11 202.883 1522.78 213.597 1585.64 231.842C1709.42 267.77 1833.05 311.379 1953.12 361.46C2067.25 409.059 2179.18 462.922 2285.8 521.546L2285.55 521.709C2064.53 400.184 1828.99 302.725 1585.48 232.04C1447.91 192.105 1338.69 187.13 1241.77 216.386C1143.17 246.149 1074.29 299.859 1014.54 353.469C1004.89 362.125 995.143 371.091 985.716 379.762C931.917 429.248 876.286 480.418 796.099 515.587C770.187 526.953 741.036 535.818 711.801 541.222C696.357 544.077 681.005 545.944 666.166 546.771C660.252 547.108 654.415 547.273 648.673 547.273Z" fill="#FFE492"/>
<path d="M657.934 534.944C633.781 534.944 611.408 532.181 591.414 526.728C569.118 520.648 549.878 511.226 534.226 498.727C532.841 497.62 531.466 496.475 530.14 495.322C506.309 474.62 493.723 450.044 481.555 426.276C479.093 421.473 476.55 416.505 473.971 411.684C458.607 382.978 440.108 357.678 417.409 334.341C414.613 331.469 411.719 328.589 408.799 325.785C355.436 274.504 280.877 230.92 193.182 199.742C91.4503 163.607 -17.4517 146.051 -113.464 150.311C-169.586 152.827 -243.936 172.782 -277.462 206.056C-297.537 225.98 -299.809 248.108 -284.039 270.049L-284.376 270.137C-292.642 258.637 -296.038 247.113 -294.466 235.888C-293.023 225.579 -287.41 215.504 -277.777 205.941C-262.513 190.789 -237.667 177.321 -205.933 166.995C-176.602 157.45 -143.776 151.447 -113.497 150.091C-63.2227 147.861 -9.62903 151.546 45.793 161.042C95.9937 169.645 145.645 182.602 193.365 199.553C281.111 230.748 355.711 274.359 409.107 325.668C412.027 328.475 414.925 331.356 417.721 334.231C440.434 357.583 458.945 382.897 474.315 411.618C476.898 416.439 479.441 421.407 481.903 426.213C494.068 449.965 506.643 474.523 530.441 495.196C531.763 496.345 533.137 497.49 534.519 498.595C566.865 524.432 611.309 534.944 658.047 534.944C658.304 534.944 658.557 534.944 658.813 534.944C658.52 534.942 658.227 534.944 657.934 534.944ZM667.904 534.79C711.355 533.449 756.192 523.417 794.657 508.495C877.629 476.172 937.261 426.25 994.932 377.972C997.307 375.982 999.681 373.997 1002.06 372.011C1007.27 367.652 1013.45 362.492 1019.76 357.29C1048.06 333.963 1082.32 306.82 1121.77 282.39C1163.74 256.394 1205.68 237.103 1249.97 223.413C1277.18 215.011 1305.94 209.091 1335.44 205.82C1362.78 202.789 1391.67 201.932 1421.3 203.273C1472.49 205.591 1527.53 214.379 1589.57 230.141C1650.06 245.484 1699.78 259.927 1746.05 275.594C1811.59 297.81 1874.02 323.407 1926.45 345.515C2048.34 397.062 2167.93 455.594 2281.91 519.486L2281.66 519.647C2167.69 455.763 2048.11 397.236 1926.24 345.696C1873.82 323.59 1811.4 297.997 1745.87 275.788C1699.62 260.125 1649.91 245.686 1589.43 230.347C1454.29 196.011 1346.47 193.869 1250.14 223.611C1150.15 254.514 1078.95 308.885 1020.06 357.423C1013.74 362.624 1007.57 367.782 1002.35 372.143C999.978 374.126 997.604 376.114 995.229 378.104C937.539 426.397 877.885 476.337 794.855 508.684C774.267 516.67 752.359 523.015 729.738 527.538C708.681 531.745 687.924 534.178 667.904 534.79Z" fill="#FFE492"/>
<path d="M668.145 522.896C665.24 522.896 662.352 522.859 659.487 522.782C635.356 522.141 613.024 518.815 593.113 512.891C571.338 506.412 552.472 496.817 537.043 484.368C535.672 483.259 534.306 482.112 532.987 480.958C509.423 460.358 496.314 436.11 483.64 412.663C480.998 407.776 478.265 402.722 475.495 397.818C459.373 369.209 440.386 344.111 417.442 321.09C414.602 318.243 411.664 315.388 408.699 312.606C354.563 261.772 279.403 218.747 191.35 188.181C88.8926 152.673 -20.3173 135.872 -116.161 140.881C-170.124 143.744 -244.259 162.562 -279.507 197.105C-299.871 217.063 -302.835 239.25 -288.08 261.268L-288.421 261.349C-296.152 249.814 -299.102 238.264 -297.196 227.019C-295.445 216.677 -289.597 206.575 -279.818 196.991C-264.392 181.874 -239.627 168.402 -208.197 158.027C-179.142 148.436 -146.466 142.27 -116.194 140.663C-65.9783 138.041 -12.326 141.334 43.2682 150.452C93.5935 158.707 143.476 171.336 191.533 187.992C279.638 218.577 354.838 261.627 409.007 312.489C411.971 315.274 414.914 318.129 417.753 320.979C440.708 344.014 459.706 369.127 475.835 397.752C478.605 402.658 481.339 407.713 483.98 412.6C496.651 436.033 509.75 460.263 533.284 480.839C534.603 481.993 535.962 483.137 537.332 484.243C600.027 534.825 711.135 529.394 793.433 501.576C879.867 472.102 944.101 423.115 1006.22 375.742L1006.86 375.256C1012.87 370.664 1019.1 365.918 1025.29 361.231C1090.63 311.789 1162.45 260.977 1258.33 230.632C1285.25 222.13 1313.62 215.887 1342.63 212.077C1369.61 208.532 1398.07 206.976 1427.19 207.452C1477.97 208.279 1532.37 215.143 1593.51 228.435C1657.76 242.354 1706.12 255.148 1750.29 269.921C1813.23 291.013 1874.19 317.664 1927.98 341.179C2047.74 393.816 2165.51 453.111 2278.03 517.415L2277.77 517.573C2165.27 453.276 2047.51 393.987 1927.76 341.355C1873.98 317.845 1813.03 291.197 1750.11 270.113C1705.95 255.344 1657.62 242.554 1593.39 228.64C1460.86 199.828 1354.45 200.522 1258.5 230.823C1162.68 261.149 1090.89 311.939 1025.57 361.363C1019.38 366.05 1013.16 370.798 1007.14 375.388L1006.51 375.875C975.549 399.482 943.541 423.893 908.974 445.697C870.128 470.2 832.392 488.54 793.609 501.763C753.033 515.477 708.834 522.896 668.145 522.896Z" fill="#FFE492"/>
<path d="M2273.89 515.497C2162.85 450.787 2046.91 390.736 1929.29 337.014C1924.31 334.756 1919.32 332.486 1914.31 330.21C1863.37 307.047 1810.69 283.097 1754.36 264.438C1699.71 246.387 1644.32 235.349 1597.35 226.934C1467.69 203.56 1362.69 207.088 1266.88 238.035C1168.54 269.897 1092.33 322.798 1031.1 365.306C1027.43 367.857 1023.76 370.413 1020.09 372.971C1017.37 374.86 1014.66 376.749 1011.94 378.635C977.081 402.863 945.368 424.525 910.329 444.29C870.3 466.87 831.718 483.406 792.37 494.847C755.495 505.569 716.103 511.242 679.463 511.244C672.787 511.244 666.21 511.057 659.747 510.677C636.151 509.287 614.306 505.384 594.82 499.075C573.558 492.192 555.066 482.413 539.849 470.011C538.49 468.899 537.134 467.75 535.822 466.594C512.537 446.102 498.918 422.195 485.75 399.077C482.914 394.097 479.979 388.946 477.011 383.947C460.12 355.429 440.642 330.531 417.471 307.831C414.587 305.007 411.601 302.178 408.596 299.42C353.684 249.033 277.926 206.567 189.517 176.611C86.3347 141.73 -23.1792 125.689 -118.854 131.439C-184.261 135.448 -251.144 158.751 -281.504 188.106C-302.187 208.105 -305.855 230.363 -292.118 252.474L-292.463 252.551C-299.655 240.974 -302.162 229.388 -299.912 218.115C-297.842 207.736 -291.752 197.601 -281.815 187.99C-266.229 172.917 -241.544 159.445 -210.429 149.032C-181.652 139.401 -149.145 133.075 -118.891 131.221C-68.734 128.205 -15.0268 131.109 40.7396 139.848C91.1859 147.755 141.306 160.059 189.7 176.417C278.165 206.391 353.962 248.881 408.908 299.299C411.916 302.059 414.902 304.89 417.786 307.714C440.972 330.428 460.457 355.338 477.359 383.87C480.327 388.871 483.262 394.02 486.098 399.002C499.259 422.107 512.871 445.999 536.126 466.467C537.438 467.62 538.79 468.767 540.146 469.877C605.596 523.224 716.84 516.561 792.212 494.646C882.138 468.499 950.953 420.681 1011.67 378.49C1014.38 376.601 1017.1 374.712 1019.81 372.826C1023.48 370.268 1027.15 367.712 1030.83 365.161C1065.78 340.897 1100.29 317.319 1138.24 295.591C1181.87 270.604 1223.9 251.714 1266.71 237.841C1293.35 229.236 1321.31 222.67 1349.82 218.326C1376.47 214.265 1404.48 212.011 1433.09 211.623C1483.54 210.941 1537.31 215.881 1597.46 226.722C1644.45 235.142 1699.86 246.184 1754.54 264.246C1810.89 282.912 1863.58 306.869 1914.54 330.036C1919.54 332.312 1924.54 334.582 1929.52 336.84C2047.14 390.566 2163.1 450.624 2274.15 515.341L2273.89 515.497Z" fill="#FFE492"/>
<path d="M2270.01 513.423C2158.33 447.062 2044.22 386.247 1930.82 332.673C1924.04 329.468 1917.1 326.163 1910.38 322.969C1862.31 300.093 1812.6 276.437 1758.61 258.762C1704.69 241.176 1648.84 231.939 1601.31 225.225C1474.81 207.18 1371.2 213.542 1275.26 245.246C1183.75 275.596 1112.05 321.235 1042.72 365.369L1035.1 370.215C1029.09 374.043 1022.87 377.999 1016.74 381.88C947.34 425.761 877.863 466.889 791.132 487.925C770.086 493.03 748.475 496.568 726.894 498.445C703.719 500.46 681.208 500.488 659.982 498.529C636.928 496.4 615.578 491.929 596.525 485.24C575.79 477.96 557.668 468.003 542.667 455.649C541.315 454.531 539.971 453.379 538.67 452.226C515.671 431.855 501.561 408.3 487.916 385.521C484.871 380.438 481.72 375.181 478.54 370.076C460.864 341.646 440.903 316.949 417.512 294.574C414.588 291.778 411.558 288.972 408.505 286.235C352.82 236.296 276.465 194.388 187.693 165.042C83.7814 130.794 -26.0404 115.507 -121.55 122.004C-186.36 126.505 -252.939 149.972 -283.453 179.071C-304.48 199.121 -308.874 221.465 -296.159 243.688L-296.508 243.76C-303.161 232.133 -305.217 220.503 -302.619 209.197C-300.223 198.774 -293.88 188.599 -283.768 178.957C-268.012 163.935 -243.416 150.476 -212.631 140.033C-184.139 130.367 -151.808 123.888 -121.594 121.788C-71.4962 118.38 -17.734 120.892 38.2083 129.253C88.7791 136.812 139.13 148.787 187.865 164.851C276.689 194.212 353.087 236.146 408.806 286.114C411.858 288.853 414.892 291.662 417.816 294.457C441.221 316.843 461.194 341.553 478.877 369.999C482.057 375.104 485.208 380.363 488.253 385.446C501.89 408.212 515.993 431.756 538.967 452.103C540.264 453.252 541.608 454.401 542.957 455.519C606.832 508.125 712.964 506.648 790.989 487.723C877.651 466.704 947.098 425.592 1016.47 381.73C1022.6 377.849 1028.82 373.893 1034.83 370.065L1042.45 365.22C1076.48 343.556 1111.67 321.153 1149.89 300.313C1193.18 276.71 1234.13 258.635 1275.08 245.053C1301.44 236.34 1329.01 229.449 1357 224.576C1383.32 219.992 1410.9 217.038 1438.97 215.794C1489.21 213.569 1542.33 216.585 1601.39 225.009C1648.94 231.728 1704.82 240.967 1758.77 258.569C1812.8 276.25 1862.52 299.912 1910.61 322.795C1917.32 325.99 1924.26 329.292 1931.05 332.499C2044.45 386.078 2158.58 446.896 2270.26 513.265L2270.01 513.423Z" fill="#FFE492"/>
<path d="M2266.12 511.35C2155.41 444.25 2043.11 382.674 1932.35 328.334C1924.03 324.25 1915.49 320.004 1907.24 315.899C1861.76 293.269 1814.73 269.868 1762.85 253.092C1709.19 235.807 1653.08 228.443 1605.27 223.521C1482.28 210.663 1380.07 219.86 1283.63 252.462C1199.47 281.034 1130.37 321.525 1063.54 360.683C1056.51 364.804 1049.24 369.063 1042.15 373.191C1033.83 378.038 1027.47 381.721 1021.54 385.129C989.769 403.369 951.942 424.372 912.246 441.842C870.179 460.353 830.157 473.165 789.89 481.011C768.715 485.136 747.196 487.738 725.927 488.742C703.089 489.821 680.977 489.028 660.209 486.384C637.708 483.52 616.856 478.481 598.225 471.408C578.021 463.739 560.276 453.604 545.481 441.29C544.147 440.173 542.81 439.02 541.513 437.862C518.818 417.627 504.235 394.436 490.129 372.009C486.857 366.807 483.475 361.429 480.063 356.205C461.593 327.854 441.144 303.36 417.544 281.318C414.576 278.546 411.502 275.766 408.406 273.051C351.947 223.559 274.992 182.211 185.861 153.474C81.2272 119.855 -28.9023 105.328 -124.244 112.567C-178.493 116.776 -249.348 136.165 -285.351 169.991C-306.756 190.102 -311.893 212.547 -300.201 234.898L-300.549 234.964C-306.665 223.277 -308.262 211.596 -305.302 200.246C-302.568 189.77 -295.962 179.551 -285.659 169.872C-269.735 154.912 -245.23 141.475 -214.786 131.009C-186.58 121.315 -154.443 114.689 -124.288 112.349C-74.2482 108.549 -20.4274 110.669 35.6834 118.651C86.3752 125.863 136.961 137.512 186.033 153.28C275.215 182.032 352.215 223.404 408.707 272.926C411.803 275.64 414.88 278.425 417.848 281.199C441.459 303.252 461.919 327.759 480.401 356.124C483.815 361.35 487.197 366.728 490.469 371.929C504.565 394.346 519.144 417.524 541.813 437.737C543.11 438.892 544.444 440.044 545.778 441.157C598.917 485.391 690.133 500.211 789.776 480.797C880.014 463.217 953.624 423.815 1021.29 384.966C1027.22 381.558 1033.57 377.875 1041.89 373.028C1048.98 368.9 1056.25 364.641 1063.28 360.52C1096.18 341.243 1130.2 321.309 1166.49 302.644C1207.52 281.535 1245.78 265.056 1283.46 252.266C1309.57 243.439 1336.73 236.225 1364.19 230.827C1390.2 225.714 1417.35 222.062 1444.87 219.968C1494.98 216.16 1547.47 217.249 1605.34 223.299C1653.17 228.225 1709.31 235.591 1763.02 252.892C1814.93 269.679 1861.98 293.086 1907.47 315.722C1915.72 319.828 1924.26 324.074 1932.58 328.158C2043.35 382.505 2155.66 444.085 2266.38 511.189L2266.12 511.35Z" fill="#FFE492"/>
<path d="M2262.24 509.276C2152.48 441.435 2042.01 379.095 1933.87 323.993C1924.67 319.306 1915.23 314.386 1906.09 309.629C1862.56 286.969 1817.56 263.537 1767.09 247.417C1713.39 230.339 1657.16 224.891 1609.23 221.813C1491.81 214.071 1388.04 226.456 1292 259.674C1215.53 286.244 1149.98 321.79 1086.58 356.166C1073.78 363.109 1060.54 370.29 1047.67 377.134C1039.79 381.323 1032.82 385.001 1026.33 388.378C996.173 404.065 956.055 424.179 913.186 440.616C870.112 457.131 829.372 468.082 788.639 474.094C744.213 480.652 699.874 480.7 660.42 474.237C638.484 470.642 618.126 465.038 599.912 457.578C580.248 449.523 562.88 439.212 548.286 426.935C546.964 425.816 545.637 424.661 544.348 423.503C521.975 403.422 506.938 380.612 492.399 358.554C488.882 353.218 485.247 347.702 481.579 342.341C462.299 314.065 441.363 289.769 417.572 268.068C414.561 265.32 411.442 262.564 408.302 259.874C351.07 210.828 273.518 170.037 184.028 141.915C78.6723 108.928 -31.765 95.1584 -126.942 103.138C-191.443 108.664 -255.846 131.866 -287.195 160.871C-309.011 181.055 -314.906 203.617 -304.244 226.117L-304.595 226.176C-310.168 214.419 -311.304 202.677 -307.974 191.278C-304.896 180.742 -298.007 170.471 -287.503 160.75C-271.41 145.86 -247.001 132.454 -216.912 121.98C-189.003 112.265 -157.067 105.494 -126.993 102.918C-77.012 98.7268 -23.1325 100.457 33.1505 108.058C83.9668 114.922 134.787 126.246 184.196 141.717C273.737 169.857 351.334 210.67 408.603 259.747C411.743 262.437 414.861 265.195 417.876 267.945C441.678 289.659 462.625 313.966 481.916 342.255C485.584 347.616 489.219 353.135 492.736 358.471C507.268 380.517 522.297 403.316 544.648 423.377C545.938 424.535 547.26 425.687 548.583 426.805C600.81 470.753 690.516 488.35 788.551 473.881C877.924 460.688 955.535 424.909 1026.09 388.213C1032.57 384.836 1039.55 381.16 1047.42 376.971C1060.29 370.127 1073.53 362.948 1086.33 356.005C1149.74 321.622 1215.31 286.068 1291.82 259.487C1317.7 250.534 1344.46 242.999 1371.37 237.086C1397.1 231.433 1423.81 227.081 1450.75 224.151C1500.84 218.703 1552.7 217.868 1609.27 221.597C1657.22 224.677 1713.5 230.128 1767.26 247.225C1817.76 263.357 1862.78 286.797 1906.33 309.466C1915.47 314.223 1924.91 319.141 1934.11 323.828C2042.25 378.934 2152.74 441.279 2262.5 509.124L2262.24 509.276Z" fill="#FFE492"/>
<path d="M2258.35 507.203C2149.58 438.613 2040.92 375.513 1935.4 319.654C1925.71 314.521 1915.73 309.086 1906.09 303.829C1864.15 280.977 1820.78 257.345 1771.33 241.744C1717.41 224.811 1661.13 221.305 1613.19 220.107C1500.21 217.078 1397.88 232.38 1300.38 266.888C1231.99 291.204 1171.04 321.979 1112.08 351.739C1091.81 361.973 1072.66 371.639 1053.19 381.076C1045.27 384.918 1038.05 388.369 1031.13 391.625C986.446 412.615 949.271 427.791 914.133 439.383C870.051 453.928 828.596 463.019 787.398 467.175C771.415 468.787 755.491 469.59 739.857 469.59C712.142 469.59 685.325 467.072 660.637 462.084C615.958 453.056 579.105 436.398 551.101 412.573C549.782 411.444 548.467 410.288 547.192 409.135C525.16 389.228 509.701 366.823 494.752 345.152C490.964 339.662 487.05 333.987 483.104 328.468C463 300.258 441.572 276.164 417.61 254.809C414.554 252.086 411.392 249.354 408.208 246.688C350.203 198.089 272.049 157.857 182.2 130.345C76.1227 97.9916 -34.6187 84.9772 -129.63 93.6989C-194.399 99.7681 -256.944 122.53 -288.964 151.689C-311.223 171.957 -317.899 194.653 -308.277 217.324L-308.633 217.38C-313.656 205.541 -314.323 193.728 -310.611 182.27C-307.174 171.664 -299.997 161.335 -289.268 151.568C-273.007 136.76 -248.704 123.397 -218.981 112.923C-191.373 103.193 -159.661 96.2899 -129.685 93.481C-79.7631 88.8978 -25.825 90.2362 30.6266 97.4588C81.5675 103.977 132.618 114.975 182.368 130.147C272.269 157.677 350.466 197.931 408.508 246.558C411.692 249.226 414.854 251.958 417.914 254.684C441.891 276.05 463.329 300.157 483.441 328.378C487.387 333.897 491.304 339.574 495.089 345.064C510.031 366.723 525.482 389.12 547.496 409.009C548.771 410.16 550.082 411.316 551.401 412.443C603.694 456.937 689.689 476.806 787.335 466.955C880.288 457.578 962.619 423.525 1030.9 391.449C1037.82 388.193 1045.04 384.744 1052.96 380.902C1072.43 371.465 1091.58 361.801 1111.85 351.567C1170.81 321.801 1231.78 291.021 1300.19 266.696C1325.88 257.605 1352.24 249.746 1378.56 243.336C1404.05 237.128 1430.32 232.076 1456.64 228.322C1506.84 221.166 1558.06 218.405 1613.21 219.885C1661.19 221.082 1717.51 224.593 1771.5 241.546C1820.99 257.158 1864.37 280.8 1906.33 303.661C1915.98 308.918 1925.95 314.353 1935.64 319.485C2041.16 375.348 2149.83 438.454 2258.61 507.048L2258.35 507.203Z" fill="#FFE492"/>
<path d="M2254.47 505.129C2145.15 434.809 2041.28 372.72 1936.93 315.313C1926.97 309.836 1917.17 304.243 1906.79 298.321C1866.22 275.172 1824.26 251.236 1775.58 236.071C1720.98 219.145 1662.23 217.736 1617.15 218.401C1509.31 219.783 1408.43 238.004 1308.75 274.104C1248.94 295.869 1193.72 322.005 1140.32 347.283C1112.25 360.569 1085.74 373.114 1058.71 385.021C1050.68 388.559 1043.23 391.781 1035.92 394.874C990.63 414.017 952.231 427.767 915.071 438.148C869.967 450.749 827.797 457.98 786.152 460.257C764.754 461.426 743.503 461.205 722.988 459.603C701.268 457.906 680.361 454.65 660.85 449.928C617.603 439.461 581.626 422.063 553.915 398.216C552.607 397.085 551.303 395.927 550.035 394.773C528.373 375.071 512.526 353.093 497.2 331.839C493.111 326.168 488.883 320.304 484.629 314.602C463.681 286.454 441.771 262.56 417.643 241.557C414.539 238.858 411.333 236.151 408.113 233.509C349.335 185.357 270.584 145.684 180.375 118.781C97.1143 94.0534 11.2515 81.1513 -67.4847 81.1513C-89.7436 81.1513 -111.416 82.1816 -132.32 84.2662C-196.308 90.7734 -258.461 113.617 -290.668 142.463C-313.399 162.826 -320.885 185.676 -312.315 208.541L-312.674 208.59C-317.148 196.658 -317.334 184.764 -313.231 173.24C-309.427 162.557 -301.938 152.16 -290.975 142.34C-274.546 127.624 -250.356 114.317 -221.015 103.854C-193.318 93.9764 -162.669 87.128 -132.385 84.0505C-82.5218 79.0755 -28.5251 80.0242 28.0987 86.866C79.1605 93.0342 130.449 103.704 180.537 118.581C270.796 145.499 349.595 185.194 408.41 233.375C411.634 236.016 414.844 238.726 417.947 241.427C442.086 262.441 464.008 286.346 484.966 314.508C489.22 320.209 493.452 326.073 497.541 331.746C512.86 352.992 528.699 374.961 550.343 394.648C551.611 395.799 552.915 396.957 554.219 398.086C606.04 442.679 690.561 465.256 786.123 460.034C882.82 454.749 970.302 422.336 1035.72 394.689C1043.02 391.597 1050.47 388.374 1058.5 384.838C1085.53 372.936 1112.03 360.388 1140.1 347.105C1193.51 321.825 1248.73 295.682 1308.56 273.91C1359.89 255.324 1410.25 241.779 1462.53 232.498C1512.96 223.548 1563.54 218.863 1617.15 218.176C1647.74 217.725 1672.7 218.509 1695.69 220.64C1725.38 223.392 1751.57 228.373 1775.75 235.871C1824.48 251.049 1866.46 274.998 1907.05 298.158C1917.43 304.08 1927.23 309.671 1937.18 315.148C2041.54 372.557 2145.42 434.651 2254.74 504.975L2254.47 505.129Z" fill="#FFE492"/>
<path d="M2250.58 503.055C2142.27 431.965 2040.17 369.136 1938.45 310.972C1928.39 305.218 1918.47 299.289 1907.97 293.013C1868.61 269.499 1827.91 245.18 1779.82 230.396C1724.77 213.549 1666.09 214.223 1621.11 216.69C1519.35 222.081 1419.91 243.221 1317.12 281.313C1266.48 300.172 1218.26 321.754 1171.63 342.627C1134.76 359.126 1099.95 374.712 1064.23 388.957C1056.16 392.18 1048.24 395.262 1040.71 398.115C995.335 415.294 954.544 427.98 916.009 436.9C869.868 447.581 826.984 452.957 784.907 453.331C763.498 453.52 742.331 452.358 722.006 449.873C700.7 447.266 680.196 443.192 661.063 437.759C619.3 425.9 584.195 407.763 556.726 383.85C555.436 382.721 554.139 381.56 552.875 380.4C531.62 360.938 515.429 339.424 499.769 318.619C495.339 312.733 490.755 306.644 486.15 300.725C464.345 272.629 441.947 248.938 417.676 228.294C414.529 225.619 411.279 222.936 408.014 220.318C348.463 172.613 269.111 133.499 178.544 107.206C71.0268 76.1232 -40.3338 64.6233 -135.016 74.8244C-198.176 81.7476 -259.915 104.65 -292.301 133.169C-315.546 153.639 -323.863 176.661 -316.359 199.749L-316.718 199.791C-320.632 187.756 -320.331 175.769 -315.821 164.166C-311.633 153.395 -303.825 142.923 -292.605 133.043C-276.015 118.433 -251.946 105.192 -223 94.751C-195.622 84.8758 -165.222 77.9107 -135.082 74.6065C-85.2731 69.2418 -31.2214 69.7965 25.571 76.2597C76.7574 82.0844 128.277 92.4286 178.701 107.006C269.324 133.312 348.719 172.45 408.304 220.184C411.572 222.801 414.826 225.487 417.973 228.164C442.258 248.819 464.664 272.521 486.479 300.628C491.089 306.547 495.669 312.636 500.102 318.525C515.755 339.321 531.939 360.826 553.179 380.275C554.443 381.433 555.74 382.593 557.026 383.72C609.393 429.305 690.32 453.952 784.899 453.106C861.642 452.424 942.866 434.888 1040.52 397.923C1048.04 395.07 1055.95 391.99 1064.02 388.768C1099.73 374.525 1134.55 358.944 1171.4 342.445C1218.04 321.569 1266.27 299.983 1316.93 281.119C1368.75 261.913 1418.3 247.375 1468.42 236.67C1519.18 225.826 1569.12 219.215 1621.08 216.464C1666.1 213.992 1724.85 213.32 1779.99 230.193C1828.13 244.995 1868.85 269.325 1908.23 292.85C1918.73 299.126 1928.65 305.052 1938.71 310.805C2040.43 368.971 2142.53 431.804 2250.85 502.899L2250.58 503.055Z" fill="#FFE492"/>
<path d="M2246.7 500.981C2139.39 429.118 2039.07 365.546 1939.98 306.633C1929.93 300.652 1919.99 294.438 1909.48 287.858C1871.24 263.923 1831.69 239.173 1784.07 224.723C1728.5 207.938 1669.91 210.701 1625.08 214.982C1529.32 223.953 1434.13 247.322 1325.5 288.527C1284.75 304.051 1244.93 321.081 1206.43 337.549C1159.66 357.55 1115.49 376.445 1069.75 392.9C1061.51 395.867 1053.35 398.716 1045.51 401.362C999.317 416.934 957.265 428.152 916.949 435.654C894.368 439.857 872.076 442.901 850.693 444.704C827.884 446.626 805.332 447.2 783.663 446.412C739.698 444.812 698.522 437.807 661.281 425.594C621.061 412.404 586.832 393.529 559.546 369.491C558.263 368.352 556.977 367.19 555.721 366.037C534.92 346.861 518.439 325.858 502.504 305.548C497.679 299.4 492.692 293.042 487.676 286.856C464.992 258.807 442.107 235.316 417.712 215.039C414.52 212.387 411.223 209.728 407.918 207.137C347.593 159.876 267.644 121.321 176.718 95.6427C68.4825 65.1959 -43.1822 54.4533 -137.707 65.3918C-238.918 77.2857 -337.542 128.676 -320.395 190.963L-320.758 190.999C-325.048 175.417 -322.535 160.067 -313.29 145.371C-304.848 131.95 -290.995 119.318 -272.114 107.832C-254.56 97.1506 -233.499 87.9292 -209.522 80.4226C-186.717 73.2836 -161.908 68.0092 -137.78 65.1738C-88.0299 59.4173 -33.9196 59.5824 23.045 65.6669C74.356 71.1461 126.11 81.1644 176.872 95.4446C267.849 121.141 347.846 159.717 408.207 207.005C411.516 209.598 414.813 212.257 418.008 214.912C442.414 235.197 465.311 258.701 488.006 286.762C493.022 292.947 498.009 299.305 502.834 305.455C518.765 325.759 535.239 346.753 556.028 365.918C557.281 367.071 558.564 368.234 559.846 369.369C612.289 415.567 691.784 442.848 783.685 446.194C861.487 449.023 947.071 434.298 1045.33 401.172C1053.17 398.526 1061.32 395.68 1069.56 392.713C1115.29 376.262 1159.46 357.37 1206.22 337.371C1244.73 320.9 1284.55 303.868 1325.3 288.342C1433.98 247.12 1529.21 223.741 1625.02 214.764C1655.14 211.887 1680.08 210.967 1703.52 211.872C1733.47 213.027 1759.87 217.166 1784.23 224.525C1831.9 238.99 1871.47 263.755 1909.74 287.704C1920.25 294.281 1930.18 300.496 1940.24 306.475C2039.33 365.392 2139.66 428.967 2246.96 500.834L2246.7 500.981Z" fill="#FFE492"/>
<path d="M2242.81 498.908C2136.53 426.261 2037.97 361.948 1941.51 302.292C1931.53 296.119 1921.67 289.654 1911.23 282.806C1874.02 258.412 1835.54 233.187 1788.31 219.048C1731.53 202.122 1670.22 207.645 1629.04 213.272C1517.27 228.355 1417.11 263.423 1333.87 295.741C1303.96 307.403 1274.12 319.757 1245.25 331.704C1187.36 355.67 1132.68 378.307 1075.28 396.842C1066.83 399.57 1058.44 402.183 1050.31 404.611C1003.22 418.653 959.904 428.401 917.899 434.406C870.282 441.215 824.705 442.927 782.426 439.493C738.992 435.964 698.307 427.194 661.506 413.425C622.905 398.984 589.552 379.372 562.365 355.133C561.097 353.995 559.818 352.83 558.569 351.673C538.285 332.849 521.599 312.422 505.459 292.668C500.171 286.193 494.701 279.501 489.205 272.988C465.297 244.586 442.591 221.962 417.753 201.785C414.518 199.156 411.18 196.524 407.827 193.955C346.722 147.143 266.172 109.148 174.887 84.0765C65.9335 54.2681 -46.0391 44.2805 -140.402 55.9565C-241.976 68.6913 -338.586 119.384 -324.435 182.177L-324.798 182.206C-328.308 166.627 -325.271 151.293 -315.773 136.629C-307.068 123.195 -293.133 110.55 -274.352 99.0501C-256.838 88.3251 -235.887 79.0354 -212.078 71.4342C-189.409 64.1962 -164.647 58.7698 -140.476 55.7386C-90.7805 49.5902 -36.6152 49.3657 20.5179 55.0694C71.9535 60.2029 123.942 69.8954 175.041 83.8762C266.381 108.961 346.975 146.978 408.109 193.818C411.462 196.389 414.803 199.024 418.042 201.653C442.895 221.839 465.609 244.476 489.527 272.888C495.023 279.402 500.494 286.097 505.781 292.571C521.917 312.319 538.6 332.739 558.869 351.554C560.119 352.712 561.394 353.874 562.661 355.012C615.511 402.13 693.573 432.055 782.47 439.275C862.199 445.752 949.754 434.346 1050.14 404.412C1058.27 401.987 1066.67 399.376 1075.1 396.648C1132.49 378.117 1187.16 355.485 1245.05 331.521C1273.91 319.575 1303.75 307.218 1333.67 295.554C1389.64 273.824 1436.2 257.77 1480.19 245.03C1531.98 230.035 1580.64 219.576 1628.95 213.056C1658.41 209.032 1684.08 207.209 1707.43 207.486C1737.51 207.843 1764.02 211.559 1788.47 218.85C1835.77 233.007 1874.26 258.247 1911.49 282.656C1921.94 289.502 1931.8 295.967 1941.77 302.136C2038.24 361.794 2136.8 426.111 2243.09 498.76L2242.81 498.908Z" fill="#FFE492"/>
<path d="M2238.93 496.832C2133.67 423.4 2036.88 358.345 1943.04 297.949C1933.2 291.616 1923.46 284.926 1913.15 277.842C1876.92 252.958 1839.47 227.226 1792.56 213.373C1735.16 196.487 1674.01 204.251 1633 211.561C1531.74 229.461 1441.41 263.542 1342.25 302.953C1324.36 310.087 1306.27 317.451 1288.78 324.574C1221.49 351.968 1151.92 380.293 1080.8 400.783C1072.16 403.275 1063.51 405.654 1055.1 407.856C1007.69 420.254 961.846 428.764 918.841 433.151C870.124 438.122 823.811 437.926 781.176 432.572C738.351 427.195 698.161 416.657 661.718 401.252C624.84 385.662 592.354 365.315 565.167 340.776C563.911 339.636 562.643 338.469 561.401 337.311C541.729 318.928 524.937 299.166 508.698 280.056C502.846 273.171 496.797 266.051 490.718 259.124C465.876 230.751 442.698 208.321 417.775 188.535C414.503 185.938 411.117 183.327 407.717 180.778C345.85 134.406 264.707 96.9703 173.055 72.5111C63.3869 43.341 -48.8897 34.1107 -143.099 46.5219C-241.449 59.62 -339.842 108.534 -328.48 173.39L-328.843 173.412C-331.573 157.833 -328.011 142.516 -318.261 127.886C-309.296 114.436 -295.277 101.78 -276.598 90.2671C-242.134 69.0285 -193.505 53.0049 -143.18 46.304C-93.5432 39.766 -39.3193 39.1496 17.986 44.4725C69.5461 49.2626 121.766 58.6272 173.201 72.3086C264.904 96.7809 346.096 134.241 408.003 180.635C411.407 183.186 414.792 185.797 418.068 188.397C443.002 208.193 466.191 230.632 491.041 259.016C497.119 265.946 503.172 273.065 509.024 279.951C525.259 299.056 542.047 318.813 561.709 337.188C562.947 338.346 564.215 339.51 565.472 340.651C619.864 389.745 694.478 421.456 781.246 432.355C861.591 442.446 953.675 434.135 1054.95 407.653C1063.35 405.452 1071.99 403.074 1080.63 400.585C1151.73 380.101 1221.29 351.781 1288.56 324.392C1306.06 317.268 1324.15 309.905 1342.04 302.77C1385.44 285.518 1435.95 265.73 1486.08 249.209C1538.52 231.928 1586.54 219.546 1632.89 211.352C1662.07 206.151 1687.74 203.452 1711.35 203.104C1741.12 202.664 1768.49 206.054 1792.71 213.177C1813.72 219.383 1834.87 228.644 1857.37 241.491C1877.23 252.835 1895.63 265.475 1913.42 277.697C1923.72 284.778 1933.46 291.468 1943.3 297.799C2037.15 358.198 2133.94 423.254 2239.2 496.689L2238.93 496.832Z" fill="#FFE492"/>
<path d="M2235.04 494.758C2130.82 420.533 2035.8 354.737 1944.57 293.61C1934.9 287.138 1925.33 280.245 1915.2 272.95C1879.92 247.549 1843.44 221.282 1796.8 207.702C1753.22 195.051 1700.93 195.755 1636.96 209.855C1547.51 229.458 1467.56 262.247 1382.9 296.965C1372.36 301.288 1361.47 305.757 1350.62 310.171C1346.37 311.903 1342.12 313.64 1337.88 315.374C1257.22 348.326 1173.81 382.401 1086.32 404.727C1077.47 406.986 1068.59 409.132 1059.9 411.105C1011.45 422.096 964.307 429.092 919.797 431.896C869.955 435.035 822.898 432.935 779.941 425.653C737.783 418.505 698.087 406.2 661.956 389.078C626.935 372.482 595.322 351.402 567.992 326.419C566.746 325.276 565.49 324.107 564.255 322.947C545.33 305.14 528.593 286.176 512.401 267.836C505.847 260.409 499.064 252.729 492.253 245.253C466.451 216.899 442.803 194.664 417.822 175.278C414.502 172.703 411.077 170.118 407.632 167.594C344.981 121.671 263.237 84.792 171.226 60.9448C60.8473 32.4153 -51.7408 23.9401 -145.793 37.0865C-242.336 50.6931 -340.59 100.008 -332.519 164.604L-332.885 164.622C-334.831 149.041 -330.749 133.741 -320.746 119.148C-311.516 105.683 -297.417 93.0118 -278.837 81.4899C-244.52 60.2073 -196.059 43.9459 -145.877 36.873C-96.2953 29.9432 -42.0165 28.9349 15.4574 33.8792C67.1421 38.3215 119.6 47.3602 171.373 60.7422C263.435 84.6049 345.23 121.504 407.907 167.45C411.351 169.975 414.785 172.564 418.104 175.14C443.096 194.536 466.759 216.778 492.568 245.143C499.383 252.618 506.162 260.301 512.72 267.729C528.904 286.064 545.642 305.024 564.559 322.824C565.794 323.984 567.047 325.151 568.293 326.293C623.865 377.091 697.083 411.373 780.036 425.435C861.924 439.317 956.038 434.423 1059.77 410.893C1068.45 408.921 1077.33 406.777 1086.17 404.52C1173.64 382.203 1257.03 348.135 1337.67 315.187C1341.92 313.451 1346.16 311.716 1350.41 309.983C1361.26 305.57 1372.15 301.101 1382.69 296.78C1467.37 262.056 1547.35 229.258 1636.83 209.646C1665.73 203.275 1691.39 199.702 1715.27 198.718C1745.16 197.488 1772.64 200.444 1796.96 207.502C1817.85 213.584 1838.73 222.887 1860.81 235.943C1880.28 247.463 1898.18 260.347 1915.48 272.807C1925.62 280.1 1935.18 286.99 1944.84 293.46C2036.08 354.589 2131.1 420.388 2235.32 494.615L2235.04 494.758Z" fill="#FFE492"/>
<path d="M2231.16 492.684C2136.03 423.518 2040.12 355.078 1946.09 289.269C1936.52 282.607 1927.03 275.451 1916.99 267.876C1884.33 243.234 1847.3 215.306 1801.05 202.029C1756.95 189.4 1704.58 191.401 1640.92 208.145C1565.23 227.988 1498.24 257.164 1427.33 288.054C1405.12 297.726 1382.15 307.731 1358.99 317.382C1318.56 334.264 1274.82 352.128 1228.97 368.398C1179.87 385.824 1135.01 398.995 1091.83 408.668C1082.76 410.7 1073.63 412.613 1064.68 414.349C1015.2 423.954 966.785 429.42 920.768 430.595C869.827 431.894 822.026 427.905 778.688 418.73C698.659 401.577 628.713 365.689 570.795 312.059C569.561 310.915 568.315 309.744 567.087 308.583C549.123 291.563 532.678 273.606 516.777 256.24C509.291 248.066 501.553 239.613 493.767 231.386C466.983 203.04 442.859 181 417.848 162.026C414.481 159.473 411.011 156.913 407.526 154.414C344.113 108.934 261.768 72.6163 169.398 49.3789C58.3047 21.4878 -54.5875 13.7721 -148.485 27.6516C-245.615 42.0902 -341.407 90.7511 -336.56 155.819L-336.926 155.827C-338.088 140.242 -333.478 124.96 -323.23 110.405C-313.733 96.9215 -299.553 84.2373 -281.079 72.7066C-263.675 61.8429 -243.047 52.3441 -219.769 44.4721C-197.169 36.8312 -173.218 31.0989 -148.577 27.4358C-99.0504 20.1164 -44.713 18.7163 12.9295 23.2797C64.7387 27.3808 117.427 36.0916 169.537 49.1742C261.962 72.4248 344.355 108.765 407.805 154.267C411.289 156.767 414.766 159.33 418.134 161.883C443.155 180.868 467.29 202.916 494.085 231.272C501.871 239.501 509.61 247.954 517.095 256.13C532.997 273.494 549.438 291.448 567.395 308.462C568.619 309.625 569.868 310.794 571.099 311.938C628.973 365.526 698.857 401.386 778.809 418.521C861.165 435.956 959.98 434.441 1064.57 414.138C1073.51 412.401 1082.64 410.491 1091.7 408.461C1188.25 386.837 1276.58 351.521 1358.78 317.199C1381.94 307.549 1404.9 297.546 1427.11 287.873C1498.04 256.977 1565.04 227.794 1640.77 207.942C1704.52 191.172 1757 189.171 1801.2 201.829C1821.92 207.775 1842.49 217.095 1864.09 230.319C1883.13 241.979 1900.49 255.075 1917.28 267.737C1927.32 275.312 1936.8 282.467 1946.37 289.123C2040.4 354.935 2136.31 423.375 2231.44 492.544L2231.16 492.684Z" fill="#FFE492"/>
<path d="M2227.27 490.611C2133.6 421.062 2039.51 351.86 1947.62 284.928C1938.35 278.194 1929.15 270.912 1919.4 263.203C1887.54 237.986 1851.43 209.404 1805.29 196.352C1760.67 183.745 1708.2 187.043 1644.87 206.43C1578.53 226.713 1517.57 255.353 1458.63 283.052C1429.07 296.941 1398.5 311.302 1367.36 324.592C1318.2 345.588 1276.84 361.605 1237.2 375.001C1188.31 391.517 1142.56 403.818 1097.35 412.606C1088.07 414.411 1078.69 416.089 1069.48 417.592C1021.46 425.422 974.314 429.385 929.209 429.387C926.703 429.387 924.212 429.374 921.72 429.35C869.574 428.839 821.033 422.935 777.446 411.805C756.407 406.403 735.804 399.546 716.213 391.423C697.797 383.788 679.701 374.796 662.425 364.696C631.343 346.526 602.287 324.609 573.605 297.698C572.374 296.54 571.146 295.38 569.926 294.215C553.284 278.337 537.54 261.739 522.316 245.687C513.526 236.421 504.439 226.839 495.287 217.512C467.107 188.775 443.235 167.572 417.877 148.766C414.466 146.236 410.952 143.7 407.423 141.226C343.241 96.1975 260.298 60.4388 167.569 37.8111C55.7651 10.5606 -57.4349 3.60215 -151.179 18.2147C-246.487 33.1134 -342.155 82.1441 -340.598 147.029L-340.964 147.031C-341.69 116.809 -321.754 88.0701 -283.315 63.9235C-265.94 53.0092 -245.421 43.4422 -222.323 35.4821C-199.848 27.7377 -175.944 21.8557 -151.271 17.999C-101.803 10.2876 -47.4065 8.49795 10.4045 12.6805C62.3383 16.4382 115.262 24.8232 167.705 37.6042C260.492 60.2473 343.482 96.028 407.705 141.083C411.234 143.56 414.755 146.098 418.166 148.627C443.536 167.444 467.418 188.654 495.605 217.402C504.758 226.731 513.849 236.313 522.635 245.579C537.859 261.629 553.599 278.225 570.238 294.099C571.458 295.263 572.682 296.423 573.913 297.579C634.86 354.766 701.483 392.063 777.589 411.602C882.999 438.52 994.447 429.603 1069.38 417.381C1078.59 415.877 1087.96 414.202 1097.24 412.397C1201.22 392.184 1296.1 354.759 1367.15 324.414C1398.29 311.128 1428.85 296.767 1458.4 282.881C1517.37 255.177 1578.33 226.528 1644.71 206.236C1673.04 197.561 1698.69 192.234 1723.1 189.953C1753.22 187.14 1780.92 189.227 1805.44 196.156C1826.1 202.001 1846.48 211.396 1867.72 224.877C1886.44 236.756 1903.35 250.133 1919.7 263.073C1929.44 270.78 1938.63 278.06 1947.9 284.789C2039.79 351.721 2133.88 420.923 2227.56 490.472L2227.27 490.611Z" fill="#FFE492"/>
<path d="M2223.39 488.537L1949.15 280.589C1940.19 273.798 1931.3 266.408 1921.88 258.586C1890.81 232.773 1855.58 203.518 1809.53 190.681C1765 178.27 1710.94 182.994 1648.83 204.724C1589.13 225.612 1534.68 253.391 1482.02 280.257C1447.7 297.768 1412.2 315.874 1375.74 331.81C1266.13 379.707 1170.33 407.996 1074.28 420.841C1034.43 426.169 995.114 428.85 956.99 428.85C945.434 428.85 933.995 428.603 922.676 428.11C869.299 425.786 820.018 417.971 776.207 404.886C735.602 392.757 698.457 375.634 662.659 352.538C634.072 334.095 606.669 312.108 576.423 283.343C560.458 268.162 545 252.39 530.051 237.137C496.217 202.619 461.233 166.927 417.921 135.513C351.485 87.3325 264.281 49.5485 165.737 26.245C53.2257 -0.362668 -60.282 -6.56607 -153.872 8.77954C-244.483 23.6364 -342.829 70.4856 -344.639 138.243L-345.006 138.239C-344.196 107.953 -323.637 79.2183 -285.553 55.1422C-251.119 33.373 -204.388 16.8321 -153.967 8.56601C-104.554 0.46504 -50.0997 -1.7165 7.87616 2.08523C59.9346 5.49732 113.092 13.5587 165.872 26.0403C214.633 37.571 260.943 52.7493 303.519 71.1548C346.45 89.7144 385.036 111.318 418.199 135.368C461.53 166.792 496.525 202.494 530.366 237.02C545.315 252.271 560.773 268.041 576.734 283.22C620.863 325.19 683.438 376.924 776.372 404.683C882.951 436.517 997.155 430.921 1074.19 420.621C1170.21 407.785 1265.95 379.507 1375.52 331.627C1411.97 315.698 1447.46 297.592 1481.78 280.085C1534.45 253.215 1588.92 225.43 1648.65 204.53C1710.86 182.763 1765.04 178.035 1809.69 190.479C1830.31 196.227 1850.49 205.703 1871.4 219.455C1889.8 231.561 1906.26 245.233 1922.18 258.454C1931.59 266.276 1940.49 273.661 1949.44 280.45L2223.68 488.398L2223.39 488.537Z" fill="#FFE492"/>
<path d="M2221.18 472.551C2151.35 414.651 2091.43 367.668 2032.62 324.695C2004.08 303.82 1974.92 283.272 1945.97 263.623C1937.21 257.679 1928.54 251.357 1919.35 244.663C1896.27 227.838 1872.4 210.441 1844.93 197.53C1830.18 190.584 1815.98 185.612 1801.52 182.327C1757.14 172.146 1705.07 178.878 1646.75 202.337C1616.57 214.46 1589.09 228.256 1566.19 240.152C1541.95 252.746 1518.03 266.634 1494.9 280.065C1461.66 299.371 1427.28 319.332 1390.33 336.477C1367.84 346.94 1345.05 356.289 1322.58 364.266C1277.62 380.226 1229.36 393.377 1179.15 403.354C1148.13 409.449 1116.95 414.057 1086.5 417.046C1060.26 419.613 1033.96 421.094 1008.35 421.449C970.012 421.981 932.661 419.95 897.333 415.404C859.769 410.57 824.221 402.854 791.677 392.468C762.658 383.207 735.247 371.546 707.881 356.817C656.885 329.393 616.21 297.682 586.473 273.12C571.865 260.997 557.601 248.634 543.806 236.678C504.084 202.247 466.564 169.727 419.614 140.759C381.321 117.288 337.631 97.0337 289.746 80.5544C252.948 67.89 212.926 57.5327 170.794 49.7685C160.758 47.9216 150.531 46.2001 140.408 44.657C96.8206 38.0243 47.752 33.7053 -5.43134 31.8187C-59.0506 29.8727 -105.441 31.5567 -147.244 36.9721C-170.877 40.0099 -193.773 44.7759 -215.307 51.1356C-291.328 73.5893 -340.143 111.283 -345.889 151.968L-346.347 151.944C-344.815 141.098 -340.319 130.415 -332.988 120.187C-326.022 110.473 -316.456 101.104 -304.555 92.3404C-282.069 75.7863 -251.276 61.4511 -215.508 50.8868C-193.942 44.5161 -171.009 39.7436 -147.339 36.7013C-105.492 31.2816 -59.0653 29.5953 -5.40204 31.5435C47.8106 33.4301 96.9048 37.7536 140.521 44.3906C150.656 45.936 160.886 47.6574 170.929 49.5065C213.095 57.2751 253.15 67.6413 289.977 80.3166C337.895 96.8069 381.621 117.079 419.932 140.565C466.913 169.551 504.439 202.08 544.176 236.52C557.967 248.475 572.231 260.836 586.836 272.957C616.558 297.508 657.214 329.203 708.181 356.61C735.518 371.324 762.9 382.974 791.886 392.224C855.577 412.549 928.4 422.29 1008.33 421.174C1033.93 420.819 1060.2 419.338 1086.43 416.773C1116.86 413.784 1148.01 409.181 1179 403.089C1229.19 393.12 1277.41 379.977 1322.34 364.026C1344.8 356.055 1367.58 346.711 1390.04 336.256C1426.98 319.121 1461.35 299.164 1494.58 279.864C1517.71 266.432 1541.63 252.539 1565.89 239.941C1588.8 228.038 1616.29 214.238 1646.5 202.106C1672.46 191.661 1697.6 184.445 1721.22 180.656C1750.24 176.003 1777.31 176.478 1801.68 182.07C1816.19 185.365 1830.42 190.351 1845.21 197.312C1872.72 210.242 1896.6 227.651 1919.7 244.487C1928.89 251.179 1937.56 257.501 1946.31 263.44C1975.27 283.092 2004.43 303.641 2032.98 324.521C2091.79 367.498 2151.71 414.486 2221.55 472.39L2221.18 472.551Z" fill="#FFE492"/>
<path d="M2218.97 456.56C2154.22 397.681 2093.46 348.41 2033.19 305.935C2003.81 285.188 1973.39 265.243 1942.79 246.657C1934.67 241.726 1926.66 236.602 1918.17 231.177C1892.76 214.934 1866.48 198.137 1837.05 186.516C1822.19 180.623 1807.95 176.52 1793.51 173.971C1738.22 164.206 1682.06 182.706 1644.67 199.945C1618.19 212.123 1594 225.892 1569.49 240.106C1548.05 252.548 1527.87 265.932 1506.51 280.1C1474.8 301.132 1442.02 322.879 1404.92 341.139C1382.9 352.034 1359.92 361.453 1336.62 369.136C1293.22 383.449 1245.7 394.564 1191.33 403.118C1160.9 407.904 1129.75 411.314 1098.72 413.249C1072.54 414.862 1046.41 415.439 1021.04 414.957C983.313 414.248 946.431 411.061 911.417 405.485C874.645 399.627 839.559 391.068 807.136 380.046C778.728 370.391 751.3 358.411 723.281 343.424C672.395 316.244 628.804 286.112 596.517 262.897C584.565 254.303 572.803 245.656 561.426 237.291C516.121 203.98 473.328 172.514 421.307 146.005C382.428 126.193 338.778 109.441 291.578 96.2149C255.865 86.2076 218.012 78.7098 175.861 73.2923C166.133 72.0441 156.237 70.9192 146.45 69.9484C103.464 65.7064 57.5864 64.1016 2.08014 62.4418C-37.931 61.1848 -90.3082 60.3571 -140.626 65.1605C-164.457 67.3926 -187.493 71.2692 -209.1 76.6779C-285.172 95.7262 -336.776 129.002 -347.145 165.694L-347.688 165.639C-344.939 155.909 -339.37 146.366 -331.144 137.272C-323.303 128.608 -313 120.3 -300.524 112.573C-276.814 97.8945 -245.274 85.3755 -209.312 76.3719C-187.665 70.9522 -164.585 67.069 -140.714 64.8325C-90.3485 60.0225 -37.931 60.8524 2.10574 62.1094C57.6303 63.7692 103.522 65.374 146.538 69.6182C156.332 70.5912 166.236 71.7161 175.975 72.9643C218.166 78.3884 256.056 85.8928 291.809 95.9111C339.057 109.15 382.743 125.916 421.662 145.747C473.721 172.276 516.531 203.751 561.851 237.075C573.224 245.438 584.986 254.085 596.938 262.677C629.218 285.883 672.791 316.004 723.647 343.171C751.633 358.142 779.032 370.109 807.407 379.753C871.161 401.425 943.049 413.156 1021.06 414.623C1046.4 415.102 1072.51 414.528 1098.66 412.914C1129.66 410.982 1160.79 407.576 1191.19 402.792C1245.51 394.247 1293 383.141 1336.36 368.841C1359.63 361.167 1382.58 351.761 1404.57 340.877C1441.64 322.633 1474.41 300.894 1506.11 279.873C1527.48 265.699 1547.66 252.313 1569.12 239.864C1593.63 225.641 1617.83 211.867 1644.34 199.676C1668.58 188.5 1692.48 180.461 1715.39 175.776C1743.17 170.097 1769.51 169.381 1793.67 173.647C1808.16 176.208 1822.45 180.324 1837.36 186.235C1866.84 197.878 1893.14 214.689 1918.58 230.946C1927.06 236.368 1935.08 241.491 1943.19 246.42C1973.8 265.012 2004.22 284.963 2033.62 305.717C2093.89 348.203 2154.68 397.483 2219.43 456.375L2218.97 456.56Z" fill="#FFE492"/>
<path d="M2216.76 440.57C2156.16 379.912 2096.31 329.736 2033.77 287.178C2003.53 266.558 1971.85 247.219 1939.62 229.694C1932.73 225.947 1925.63 221.972 1918.77 218.128C1890.45 202.248 1861.16 185.828 1829.18 175.506C1814.17 170.627 1799.88 167.391 1785.51 165.615C1730.33 158.793 1677.34 179.217 1642.59 197.55C1619.05 209.926 1597.52 223.953 1576.7 237.52L1572.8 240.06C1553.9 252.368 1536.17 265.867 1517.4 280.16C1487.5 302.92 1456.59 326.452 1419.51 345.802C1397.93 357.143 1374.77 366.633 1350.67 374.008C1308.65 386.866 1261.88 396.041 1203.5 402.883C1173.31 406.42 1142.17 408.631 1110.93 409.45C1084.81 410.108 1058.84 409.778 1033.73 408.463C957.701 404.503 886.663 390.762 822.587 367.624C794.887 357.621 767.44 345.326 738.681 330.031C690.011 304.203 646.725 277.655 606.563 252.676C601.177 249.328 595.85 246.002 590.563 242.702C535.709 208.473 483.899 176.142 423.011 151.258C383.26 135.012 339.654 121.764 293.41 111.88C259.46 104.624 222.665 99.6976 180.932 96.8183C171.527 96.1733 161.96 95.6428 152.496 95.2421C128.687 94.2515 103.434 94.0908 76.6981 93.9213C55.2233 93.7848 33.0193 93.6439 9.58786 93.0694C-35.6665 91.8653 -86.9554 90.5026 -134.016 93.3556C-158.298 94.8283 -181.473 97.8133 -202.9 102.229C-278.943 117.903 -333.339 146.765 -348.409 179.435L-349.028 179.331C-345.057 170.718 -338.417 162.315 -329.298 154.357C-320.577 146.747 -309.541 139.496 -296.497 132.806C-271.549 120.012 -239.254 109.313 -203.112 101.864C-181.637 97.4369 -158.415 94.4452 -134.086 92.9703C-86.9774 90.1152 -35.6628 91.48 9.60986 92.6842C33.0266 93.2565 55.2306 93.3996 76.6981 93.5361C103.445 93.7056 128.705 93.8663 152.536 94.8591C162.008 95.2619 171.585 95.7925 180.998 96.4375C222.783 99.319 259.621 104.252 293.619 111.519C339.918 121.414 383.571 134.677 423.366 150.941C484.31 175.847 536.145 208.193 591.021 242.438C596.308 245.737 601.639 249.061 607.021 252.412C647.175 277.386 690.448 303.928 739.102 329.747C767.832 345.025 795.25 357.308 822.917 367.298C886.909 390.408 957.855 404.129 1033.78 408.085C1058.87 409.397 1084.81 409.727 1110.9 409.069C1142.1 408.25 1173.22 406.042 1203.37 402.509C1261.69 395.674 1308.41 386.509 1350.37 373.669C1374.43 366.31 1397.54 356.837 1419.08 345.516C1456.12 326.19 1487.01 302.671 1516.89 279.924C1535.67 265.624 1553.41 252.119 1572.33 239.803L1576.22 237.262C1597.05 223.689 1618.59 209.653 1642.17 197.264C1677.02 178.871 1730.2 158.388 1785.63 165.241C1800.07 167.026 1814.41 170.273 1829.48 175.171C1861.53 185.515 1890.85 201.953 1919.21 217.851C1926.06 221.694 1933.16 225.67 1940.04 229.414C1972.29 246.948 2003.98 266.298 2034.24 286.929C2096.81 329.505 2156.68 379.698 2217.3 440.376L2216.76 440.57Z" fill="#FFE492"/>
<path d="M2214.55 424.577C2158.91 363.003 2098.28 310.463 2034.34 268.422C2003.26 247.932 1970.32 229.196 1936.45 212.735C1931.56 210.357 1926.55 207.889 1921.7 205.503C1889.69 189.739 1856.59 173.436 1821.33 164.499C1806.19 160.622 1791.86 158.256 1777.52 157.261C1722.5 153.448 1672.65 175.763 1640.53 195.155C1620.57 207.134 1602.57 220.457 1585.15 233.341C1582.14 235.571 1579.13 237.797 1576.11 240.014C1559.55 252.192 1544.06 265.796 1527.66 280.197C1499.79 304.681 1470.96 329.996 1434.1 350.469C1412.45 362.49 1389.76 371.784 1364.71 378.886C1312.32 393.738 1259.97 399.235 1215.67 402.656C1185.7 404.967 1154.57 405.98 1123.14 405.659C1097.1 405.361 1071.29 404.122 1046.42 401.978C972.673 395.636 902.565 379.901 838.045 355.208C811.199 344.937 783.737 332.323 754.084 316.647C724.131 300.85 696.219 285.65 669.222 270.949C650.876 260.957 633.545 251.52 616.621 242.466C552.647 208.239 494.049 178.147 424.729 156.517C384.124 143.848 340.563 134.1 295.253 127.547C262.779 122.849 228.066 120.562 186.014 120.344C176.942 120.304 167.701 120.368 158.552 120.535C144.655 120.806 130.277 121.372 115.06 121.973C85.8582 123.124 52.7538 124.43 17.0955 123.699C3.5166 123.419 -10.3371 123.025 -23.7364 122.642C-58.2002 121.658 -93.8365 120.641 -127.41 121.55C-152.065 122.22 -175.383 124.315 -196.708 127.78C-272.622 140.119 -329.807 164.569 -349.681 193.184L-350.358 193.015C-345.155 185.522 -337.446 178.261 -327.447 171.435C-317.844 164.879 -306.075 158.687 -292.474 153.032C-266.265 142.135 -233.22 133.257 -196.905 127.355C-175.53 123.882 -152.16 121.779 -127.45 121.11C-93.8401 120.199 -58.1892 121.218 -23.7071 122.202C-10.3114 122.585 3.54224 122.979 17.1175 123.259C52.7428 123.989 85.8215 122.686 115.009 121.535C130.233 120.934 144.614 120.368 158.527 120.097C167.687 119.93 176.935 119.866 186.018 119.906C228.129 120.122 262.893 122.415 295.422 127.12C340.786 133.682 384.406 143.441 425.062 156.127C456.375 165.897 488.106 178.275 522.068 193.966C552.472 208.013 582.047 223.383 617.105 242.138C634.029 251.194 651.36 260.632 669.709 270.623C696.702 285.322 724.615 300.522 754.561 316.317C784.184 331.977 811.617 344.578 838.43 354.838C902.862 379.498 972.87 395.211 1046.51 401.544C1071.36 403.686 1097.14 404.923 1123.14 405.221C1154.54 405.542 1185.64 404.532 1215.56 402.22C1259.81 398.806 1312.1 393.316 1364.39 378.49C1389.37 371.408 1412.01 362.138 1433.6 350.147C1470.39 329.71 1499.2 304.414 1527.05 279.951C1543.46 265.541 1558.95 251.93 1575.54 239.739C1578.55 237.522 1581.56 235.296 1584.57 233.068C1602 220.175 1620.02 206.844 1639.99 194.849C1660.9 182.233 1682.34 172.527 1703.73 166.002C1729.07 158.273 1753.92 155.187 1777.59 156.829C1792 157.829 1806.4 160.206 1821.6 164.098C1856.95 173.06 1890.1 189.383 1922.15 205.166C1927 207.553 1932.01 210.02 1936.89 212.396C1970.79 228.87 2003.75 247.624 2034.86 268.129C2068.81 290.453 2102.06 315.888 2133.68 343.726C2161.63 368.33 2189.05 395.464 2215.17 424.37L2214.55 424.577Z" fill="#FFE492"/>
<path d="M2212.33 408.58C2160.84 345.24 2101.15 291.774 2034.92 249.664C2002.98 229.304 1968.79 211.174 1933.29 195.773C1931.6 195.04 1929.91 194.307 1928.22 193.572C1891.3 177.537 1853.13 160.956 1813.49 153.492C1798.13 150.599 1783.75 149.1 1769.55 148.906C1714.75 148.162 1668.02 172.342 1638.47 192.755C1621.08 204.697 1605.64 217.786 1590.71 230.444C1587.02 233.574 1583.2 236.81 1579.44 239.963C1565.09 251.969 1551.75 265.62 1537.62 280.074C1511.94 306.364 1485.38 333.549 1448.71 355.131C1427.49 367.617 1404.61 376.981 1378.76 383.762C1327.84 397.117 1276.13 400.624 1227.84 402.425C1198.06 403.534 1166.94 403.345 1135.34 401.863C1109.4 400.608 1083.75 398.462 1059.11 395.486C987.871 386.901 918.694 369.171 853.507 342.788C827.401 332.224 800.705 319.663 769.499 303.258C710.189 272.166 666.148 250.267 626.701 232.254C548.243 196.427 488.362 175.349 426.48 161.775C385.051 152.688 341.534 146.443 297.129 143.211C266.322 140.97 233.628 141.171 191.125 143.867C182.416 144.426 173.505 145.085 164.638 145.826C156.262 146.538 147.754 147.352 138.745 148.213C105.479 151.394 67.7725 154.999 24.6176 154.326C1.8714 153.971 -21.3622 153.001 -43.83 152.063C-69.3645 150.997 -95.7675 149.895 -120.8 149.745C-145.899 149.595 -169.359 150.802 -190.512 153.333C-266.174 162.383 -326.154 182.426 -350.956 206.947L-351.659 206.689C-345.218 200.319 -336.439 194.201 -325.568 188.506C-315.074 183.007 -302.58 177.876 -288.429 173.251C-260.942 164.265 -227.137 157.207 -190.673 152.847C-169.462 150.311 -145.95 149.1 -120.793 149.25C-95.7382 149.399 -69.3206 150.502 -43.775 151.57C-21.3145 152.508 1.90802 153.478 24.636 153.833C67.7139 154.504 105.38 150.903 138.609 147.726C147.623 146.863 156.138 146.051 164.517 145.338C173.395 144.596 182.313 143.938 191.03 143.376C233.599 140.678 266.348 140.475 297.221 142.723C341.688 145.959 385.267 152.213 426.755 161.313C488.721 174.904 548.664 196.004 627.192 231.862C666.653 249.882 710.71 271.788 770.034 302.888C801.218 319.28 827.885 331.827 853.962 342.381C919.061 368.726 988.135 386.432 1059.26 395.004C1083.87 397.976 1109.49 400.118 1135.4 401.372C1166.96 402.852 1198.04 403.041 1227.78 401.934C1276 400.135 1327.62 396.637 1378.43 383.312C1404.18 376.559 1426.98 367.225 1448.12 354.783C1484.71 333.247 1511.25 306.091 1536.91 279.829C1551.04 265.366 1564.39 251.705 1578.76 239.681C1582.53 236.531 1586.35 233.295 1590.03 230.165C1604.97 217.496 1620.42 204.398 1637.84 192.436C1657.12 179.113 1677.34 168.575 1697.93 161.113C1722.05 152.371 1746.15 148.103 1769.56 148.417C1783.85 148.611 1798.29 150.119 1813.73 153.025C1853.5 160.516 1891.73 177.119 1928.7 193.178C1930.39 193.913 1932.08 194.648 1933.77 195.379C1969.31 210.797 2003.54 228.949 2035.51 249.332C2101.8 291.479 2161.54 344.987 2213.07 408.37L2212.33 408.58Z" fill="#FFE492"/>
<path d="M1246.07 402.196C1244.01 402.196 1241.99 402.194 1239.99 402.187C1210.37 402.112 1179.26 400.725 1147.54 398.062C1121.69 395.85 1096.2 392.796 1071.79 388.99C1036.91 383.562 1001.9 375.76 967.733 365.803C934.739 356.188 901.51 344.265 868.966 330.364C837.078 316.744 807.293 301.568 784.906 289.868C732.525 262.567 682.687 239.747 636.777 222.042C562.419 193.367 496.155 175.886 428.235 167.03C387.261 161.688 343.3 158.87 300.973 158.87C300.317 158.87 299.665 158.87 299.009 158.872C262.647 158.947 228.125 163.006 196.24 167.382C187.941 168.529 179.357 169.782 170.724 171.109C165.994 171.845 161.256 172.602 156.244 173.403C120.89 179.063 80.8164 185.475 32.1325 184.949C2.48325 184.628 -27.7999 182.783 -57.0865 180.998C-75.9965 179.844 -95.5477 178.653 -114.198 177.934C-139.835 176.945 -163.427 177.262 -184.327 178.88C-259.586 184.7 -322.362 200.339 -352.256 220.715L-352.945 220.351C-337.611 209.902 -314.546 200.854 -284.391 193.457C-255.592 186.396 -221.029 181.165 -184.444 178.336C-163.49 176.716 -139.835 176.395 -114.139 177.388C-95.4707 178.107 -75.9085 179.301 -56.9912 180.454C-27.723 182.239 2.54184 184.084 32.1508 184.403C80.7101 184.929 120.714 178.526 156.009 172.877C161.026 172.074 165.763 171.316 170.497 170.581C179.137 169.254 187.729 167.999 196.035 166.852C227.974 162.469 262.556 158.403 299.005 158.326C342.006 158.236 386.755 161.062 428.43 166.498C463.483 171.07 497.467 177.799 532.316 187.071C565.878 196.002 600.21 207.291 637.268 221.584C683.215 239.303 733.089 262.14 785.503 289.458C807.872 301.152 837.635 316.317 869.49 329.921C935.527 358.129 1003.67 377.825 1072.02 388.464C1096.4 392.266 1121.85 395.315 1147.67 397.525C1179.35 400.184 1210.41 401.571 1239.99 401.643C1286.28 401.758 1340.03 400.82 1392.46 388.129C1418.99 381.706 1441.95 372.313 1462.64 359.415C1498.98 336.763 1523.06 307.69 1546.36 279.572C1558.35 265.109 1569.67 251.448 1581.97 239.622C1585.92 235.833 1589.9 231.93 1593.74 228.155C1606.74 215.4 1620.18 202.214 1635.67 190.026C1653.36 176.003 1672.35 164.629 1692.11 156.219C1715.01 146.47 1738.36 141.015 1761.5 140.006C1775.79 139.384 1790.29 140.02 1805.83 141.952C1847.38 147.117 1888.57 162.121 1930.62 178.361C1967.28 192.52 2003.77 210.56 2036.14 230.533C2072.1 252.654 2105.89 278.606 2136.56 307.666C2163.88 333.556 2188.91 362.054 2210.95 392.371L2210.11 392.591C2162.78 327.484 2104.03 273.089 2035.49 230.918C2003.16 210.974 1966.73 192.96 1930.13 178.825C1888.15 162.614 1847.04 147.639 1805.64 142.492C1790.19 140.57 1775.77 139.938 1761.57 140.557C1719.04 142.413 1674.59 160.098 1636.4 190.36C1620.94 202.527 1607.51 215.702 1594.52 228.443C1590.68 232.221 1586.69 236.126 1582.75 239.915C1570.47 251.718 1559.15 265.369 1547.18 279.819C1535.75 293.614 1523.93 307.881 1510.37 321.596C1494.99 337.144 1479.6 349.639 1463.3 359.798C1442.52 372.753 1419.46 382.188 1392.8 388.642C1369.29 394.335 1344.02 398.097 1315.55 400.149C1291.43 401.877 1267.22 402.196 1246.07 402.196Z" fill="#FFE492"/>
<path d="M1304.82 403.299C1286.14 403.299 1268.19 402.63 1252.14 401.952C1222.62 400.706 1191.52 398.119 1159.73 394.262C1133.98 391.095 1108.66 387.137 1084.45 382.494C1018.18 369.808 952.74 348.69 884.41 317.939C854.61 304.531 826.518 290.103 800.306 276.477C748.555 249.654 696.929 227.904 646.853 211.83C573.206 188.19 504.301 175.622 430.002 172.281C387.667 170.376 343.025 171.154 300.896 174.526C265.633 177.348 232.39 184.159 201.356 190.891C193.591 192.584 185.333 194.433 176.814 196.385C174.685 196.876 172.538 197.376 170.362 197.88C134.619 206.184 94.1755 215.579 42.271 215.579C41.3953 215.579 40.5233 215.577 39.6403 215.57C4.52426 215.357 -31.3282 212.345 -66.0045 209.431C-79.7519 208.275 -93.9683 207.082 -107.609 206.115C-134.254 204.231 -157.33 203.674 -178.16 204.418C-253.921 207.126 -317.869 218.08 -353.601 234.478L-354.213 233.995C-336.549 225.89 -311.007 218.852 -280.357 213.644C-250.21 208.521 -214.892 205.123 -178.223 203.813C-157.334 203.066 -134.199 203.623 -107.496 205.512C-93.8401 206.479 -79.62 207.674 -65.869 208.827C-31.2256 211.738 4.59387 214.747 39.6439 214.96C92.6294 215.286 133.732 205.735 169.992 197.31C172.164 196.806 174.315 196.306 176.444 195.813C184.97 193.858 193.232 192.009 201.004 190.316C232.089 183.571 265.395 176.752 300.753 173.921C342.948 170.544 387.664 169.764 430.068 171.671C466.887 173.326 501.992 177.236 537.387 183.62C573.84 190.195 609.799 199.245 647.318 211.291C697.457 227.387 749.149 249.163 800.954 276.013C827.156 289.635 855.23 304.053 885.004 317.449C953.242 348.157 1018.58 369.244 1084.75 381.911C1108.92 386.545 1134.21 390.498 1159.92 393.661C1191.67 397.514 1222.72 400.098 1252.2 401.34C1301.8 403.431 1354.57 404.505 1406.48 392.933C1433.8 386.842 1456.91 377.389 1477.15 364.034C1513.19 340.244 1535.63 307.793 1555.42 279.163C1565.38 264.757 1574.79 251.151 1585.17 239.552C1588.92 235.367 1592.69 231.041 1596.33 226.859C1607.74 213.772 1619.53 200.24 1633.48 187.602C1649.63 172.879 1667.39 160.668 1686.28 151.308C1707.97 140.559 1730.56 133.92 1753.43 131.58C1767.73 130.116 1782.28 129.883 1797.92 130.86C1841.61 133.596 1886 147.117 1927.46 161.322C1965.75 174.438 2003.54 191.864 2036.77 211.716C2073.73 233.733 2107.78 259.945 2137.98 289.617C2164.98 316.152 2188.82 345.333 2208.83 376.354L2207.89 376.572C2165.36 310.633 2105.94 253.775 2036.06 212.143C2002.9 192.328 1965.18 174.935 1926.97 161.846C1885.6 147.674 1841.33 134.186 1797.82 131.461C1782.27 130.488 1767.81 130.721 1753.61 132.174C1711.38 136.495 1669.02 156.297 1634.33 187.932C1620.4 200.544 1608.62 214.062 1597.23 227.136C1593.59 231.321 1589.82 235.646 1586.07 239.836C1575.71 251.408 1566.31 265.001 1556.36 279.392C1536.53 308.066 1514.06 340.569 1477.89 364.439C1457.55 377.867 1434.3 387.372 1406.83 393.499C1383 398.813 1357.28 401.89 1328.21 402.901C1320.36 403.187 1312.53 403.299 1304.82 403.299Z" fill="#FFE492"/>
<path d="M1341.7 405.683C1341.43 405.683 1341.17 405.683 1340.9 405.683C1314.5 405.643 1288.58 403.702 1264.28 401.716C1234.81 399.308 1203.73 395.519 1171.92 390.461C1146.29 386.342 1121.13 381.475 1097.13 375.998C1033.5 361.497 970.818 339.103 899.865 305.517C874.312 293.425 849.166 280.404 824.844 267.815C821.803 266.238 818.758 264.664 815.713 263.091C763.695 236.274 710.277 215.592 656.947 201.622C583.92 182.495 510.269 174.614 431.786 177.531C388.752 179.131 344.15 183.505 302.801 190.18C270.177 195.447 241.106 203.898 206.489 214.399C199.472 216.536 191.979 218.843 182.914 221.661L182.409 221.82C164.92 227.292 145.098 233.493 122.865 238.209C97.33 243.624 72.5575 246.23 47.1548 246.2C7.54312 246.14 -32.8821 241.711 -71.9735 237.425C-81.5513 236.375 -91.4588 235.29 -101.022 234.308C-128.447 231.497 -151.662 230.077 -171.994 229.969C-246.857 229.573 -313.55 236.238 -354.968 248.253L-355.444 247.659C-335.157 241.773 -307.79 236.996 -276.305 233.843C-244.762 230.684 -208.686 229.117 -171.983 229.311C-151.593 229.419 -128.319 230.841 -100.835 233.658C-91.2646 234.64 -81.3571 235.726 -71.7757 236.776C-32.7318 241.055 7.64203 245.48 47.1585 245.539C47.3344 245.539 47.5139 245.539 47.6898 245.539C104.215 245.539 147.278 232.067 181.903 221.234L182.412 221.076C191.481 218.256 198.974 215.949 205.994 213.811C240.67 203.293 269.792 194.827 302.519 189.543C343.937 182.856 388.612 178.475 431.72 176.872C470.126 175.446 506.352 176.533 542.476 180.201C581.402 184.152 618.992 190.961 657.387 201.019C710.819 215.015 764.329 235.73 816.431 262.591C819.476 264.165 822.521 265.741 825.562 267.317C849.873 279.902 875.012 292.919 900.542 305.002C971.405 338.546 1033.99 360.91 1097.52 375.386C1121.48 380.856 1146.61 385.714 1172.2 389.829C1203.97 394.881 1235 398.663 1264.43 401.067C1317.15 405.377 1368.75 408.366 1420.53 397.765C1448.62 392.01 1471.9 382.498 1491.67 368.683C1527.39 343.726 1546.91 309.145 1564.13 278.632C1572.19 264.347 1579.8 250.853 1588.39 239.514C1591.7 235.151 1595.01 230.638 1598.22 226.273C1608.24 212.625 1618.61 198.514 1631.32 185.209C1645.95 169.78 1662.49 156.73 1680.46 146.423C1700.96 134.677 1722.79 126.858 1745.37 123.186C1759.37 120.91 1773.66 119.8 1789.01 119.8C1789.34 119.8 1789.68 119.8 1790.01 119.802C1837.74 119.952 1886.86 132.98 1924.32 144.312C1964.22 156.387 2003.33 173.196 2037.41 192.925C2075.37 214.841 2109.7 241.31 2139.42 271.599C2166.09 298.779 2188.74 328.645 2206.72 360.37L2205.68 360.584C2178.92 313.378 2127.86 246.056 2036.65 193.402C2002.65 173.718 1963.63 156.948 1923.82 144.902C1886.47 133.601 1837.51 120.61 1790.01 120.463C1774.37 120.408 1759.87 121.513 1745.66 123.824C1703.83 130.629 1663.56 152.545 1632.27 185.537C1619.59 198.811 1609.24 212.906 1599.22 226.539C1596.02 230.907 1592.7 235.422 1589.39 239.787C1580.83 251.098 1573.22 264.574 1565.17 278.843C1547.92 309.411 1528.37 344.058 1492.51 369.112C1472.6 383.02 1449.17 392.596 1420.88 398.388C1396.91 403.294 1371 405.683 1341.7 405.683Z" fill="#FFE492"/>
<path d="M1371.03 408.782C1365.34 408.782 1359.53 408.672 1353.58 408.452C1327.53 407.49 1302.22 404.604 1276.43 401.478C1246.53 397.854 1216.33 393.007 1184.11 386.658C1158.61 381.591 1133.61 375.819 1109.8 369.499C1049.39 353.491 989.41 329.925 915.32 293.092C896.919 283.946 878.526 274.352 860.737 265.074C851.053 260.024 841.043 254.8 831.124 249.699C778.487 222.702 723.285 203.092 667.049 191.412C592.746 175.978 516.381 173.152 433.581 182.772C389.837 187.855 345.275 195.826 304.718 205.822C272.137 213.853 243.756 225.13 213.707 237.07L211.63 237.896C206.936 239.767 202.191 241.664 197.388 243.584C194.621 244.691 191.836 245.805 189.026 246.928C171.505 253.966 152.58 261.307 130.878 266.958C105.681 273.518 80.7579 276.745 54.6774 276.824C11.2588 276.952 -33.0283 270.89 -75.8534 265.021C-81.9649 264.182 -88.2891 263.317 -94.4263 262.496C-123.2 258.643 -145.884 256.427 -165.823 255.515C-239.404 252.154 -308.845 254.522 -356.345 262.016L-356.649 261.325C-309.024 253.811 -239.441 251.434 -165.732 254.802C-145.737 255.716 -122.995 257.939 -94.1662 261.798C-88.0252 262.621 -81.7011 263.486 -75.5859 264.325C-33.2848 270.121 10.4417 276.111 53.2851 276.111C53.7468 276.111 54.2085 276.111 54.6738 276.109C110.089 275.942 149.535 261.928 188.37 246.333C191.181 245.211 193.965 244.097 196.732 242.99C201.535 241.068 206.276 239.172 210.974 237.299L213.051 236.474C243.151 224.514 271.58 213.216 304.267 205.159C344.897 195.143 389.536 187.159 433.358 182.067C516.366 172.423 592.937 175.259 667.441 190.734C723.816 202.445 779.146 222.099 831.901 249.156C841.819 254.258 851.833 259.48 861.517 264.532C879.299 273.809 897.688 283.4 916.078 292.54C990.08 329.331 1049.98 352.863 1110.28 368.845C1134.06 375.154 1159.02 380.92 1184.48 385.978C1216.65 392.318 1246.81 397.159 1276.67 400.776C1321.99 406.268 1378.4 413.105 1434.57 402.574C1463.45 397.161 1486.88 387.59 1506.19 373.312C1541.57 347.16 1557.97 310.377 1572.45 277.927C1578.74 263.83 1584.68 250.514 1591.61 239.463C1594.31 235.157 1597.02 230.704 1599.63 226.396C1608.41 211.948 1617.49 197.01 1629.15 182.803C1642.3 166.656 1657.61 152.767 1674.64 141.523C1693.94 128.781 1715.03 119.785 1737.3 114.781C1751.6 111.569 1766.25 109.59 1782.1 108.729C1803.32 107.576 1825.91 108.809 1851.16 112.489C1872.52 115.606 1895.42 120.445 1921.17 127.285C1962.7 138.315 2003.11 154.511 2038.04 174.118C2077.02 195.931 2111.61 222.662 2140.85 253.565C2167.18 281.392 2188.64 311.942 2204.61 344.371L2203.47 344.573C2169.74 276.111 2110.7 215.761 2037.23 174.642C2002.39 155.088 1962.09 138.938 1920.68 127.941C1865.2 113.205 1821.21 107.325 1782.21 109.443C1766.46 110.297 1751.92 112.263 1737.72 115.45C1684.72 127.353 1650 158.819 1630.22 183.117C1618.59 197.29 1609.52 212.21 1600.75 226.64C1598.13 230.95 1595.42 235.406 1592.72 239.714C1585.81 250.732 1579.88 264.032 1573.6 278.112C1559.1 310.633 1542.66 347.492 1507.11 373.763C1487.65 388.153 1464.03 397.802 1434.92 403.259C1415.19 406.957 1394.15 408.782 1371.03 408.782Z" fill="#FFE492"/>
<path d="M1396.43 412.335C1357.68 412.335 1320.43 406.354 1288.56 401.238C1258.58 396.426 1228.4 390.412 1196.28 382.855C1170.93 376.845 1146.09 370.166 1122.46 363.001C1051.62 341.546 988.461 310.752 930.767 280.668C918.987 274.526 907.086 268.195 895.581 262.073C879.606 253.572 863.085 244.782 846.531 236.311C793.106 209.047 736.119 190.505 677.158 181.2C600.884 169.165 521.796 171.391 435.376 188.007C390.88 196.561 346.363 208.129 306.634 221.461C275.991 231.741 250.065 244.72 222.618 258.461C220.672 259.434 218.723 260.411 216.762 261.389L215.7 261.922C209.028 265.265 202.128 268.721 195.134 272.191C178.375 280.541 159.919 289.176 138.572 295.774C113.792 303.432 88.8111 307.252 62.192 307.45C15.4684 307.8 -32.153 299.908 -78.2024 292.276C-81.4304 291.741 -84.6437 291.208 -87.8424 290.682C-118.21 285.676 -140.363 282.709 -159.665 281.058C-231.399 274.925 -303.595 272.997 -357.742 275.768L-357.852 275C-303.617 272.222 -231.315 274.152 -159.485 280.294C-140.128 281.949 -117.928 284.923 -87.5053 289.938C-84.3066 290.464 -81.0933 290.997 -77.8616 291.534C-31.9001 299.151 15.6296 307.023 62.1737 306.679C119.981 306.248 160.692 288.344 194.313 271.596C201.308 268.127 208.207 264.671 214.879 261.329L215.942 260.797C217.902 259.817 219.851 258.842 221.797 257.869C249.292 244.104 275.262 231.103 306.007 220.787C345.809 207.432 390.411 195.844 434.984 187.274C475.955 179.397 514.439 174.849 552.629 173.37C595.23 171.721 637.235 174.105 677.48 180.456C736.629 189.79 793.784 208.385 847.359 235.723C863.924 244.198 880.449 252.991 896.428 261.494C907.933 267.616 919.826 273.945 931.602 280.085C989.237 310.135 1052.32 340.897 1123.03 362.312C1146.63 369.466 1171.43 376.136 1196.75 382.137C1228.81 389.683 1258.95 395.689 1288.89 400.494C1334.86 407.873 1392.07 417.057 1448.6 407.393C1478.26 402.321 1501.84 392.69 1520.69 377.95C1555.71 350.568 1568.81 311.522 1580.37 277.071C1585.01 263.229 1589.4 250.155 1594.81 239.419C1596.81 235.448 1598.82 231.345 1600.76 227.376C1608.36 211.852 1616.22 195.797 1626.96 180.403C1638.66 163.526 1652.73 148.794 1668.79 136.623C1686.91 122.889 1707.24 112.714 1729.21 106.381C1743.48 102.269 1758.18 99.418 1774.16 97.6635C1795.69 95.3014 1819.58 95.3807 1845.17 97.899C1867.57 100.105 1892.07 104.263 1917.99 110.262C1961.14 120.249 2002.86 135.828 2038.66 155.315C2078.65 177.027 2113.51 204.015 2142.27 235.534C2168.25 264.008 2188.52 295.246 2202.49 328.376L2201.24 328.565C2171.64 258.364 2113.6 197.039 2037.8 155.887C2002.12 136.464 1960.53 120.936 1917.53 110.982C1861.79 98.0796 1814.97 93.9696 1774.39 98.423C1758.53 100.164 1743.93 102.995 1729.77 107.076C1677.49 122.145 1645.65 155.429 1628.15 180.701C1617.43 196.055 1609.58 212.087 1601.99 227.591C1600.05 231.561 1598.04 235.666 1596.04 239.642C1590.65 250.342 1586.26 263.399 1581.63 277.223C1576.06 293.797 1569.76 312.581 1560.61 330.192C1550.13 350.37 1537.4 366.144 1521.71 378.419C1512.64 385.516 1502.21 391.557 1490.71 396.373C1478.35 401.553 1464.3 405.511 1448.95 408.135C1431.38 411.14 1413.75 412.335 1396.43 412.335Z" fill="#FFE492"/>
<path d="M1419.33 416.233C1406.52 416.233 1393.1 415.485 1378.92 413.99C1351 411.047 1324.28 405.707 1300.7 400.998C1270.98 395.061 1239.94 387.675 1208.46 379.048C1183.27 372.105 1158.6 364.519 1135.12 356.498C1067.75 333.5 1009.71 302.921 946.214 268.241C940.572 265.159 934.841 262.016 929.301 258.973C907.482 247 884.923 234.62 861.938 222.922C807.626 195.339 748.859 177.867 687.267 170.99C609.575 162.314 525.427 169.799 437.172 193.239C391.884 205.267 347.407 220.43 308.55 237.092C279.293 249.638 255.209 264.428 229.711 280.089C227.121 281.68 224.519 283.276 221.903 284.879C215.392 288.872 208.379 293.158 201.245 297.449C186.285 306.476 168.053 316.763 146.27 324.585C121.886 333.342 96.8427 337.755 69.7142 338.075C20.052 338.662 -30.5005 328.783 -79.3895 319.229L-81.2509 318.866C-105.188 314.19 -130.51 309.466 -153.498 306.597C-223.569 297.856 -296.596 291.787 -359.123 289.508L-359.039 288.685C-296.446 290.966 -223.353 297.039 -153.22 305.79C-130.166 308.667 -104.8 313.397 -80.8258 318.08L-78.9645 318.443C-30.1817 327.975 20.2682 337.83 69.6886 337.247C126.763 336.573 166.181 317.439 200.274 296.861C207.408 292.573 214.414 288.287 220.925 284.296C223.541 282.695 226.142 281.097 228.733 279.508C254.275 263.821 278.402 249.004 307.755 236.416C346.685 219.721 391.247 204.53 436.618 192.48C478.026 181.484 518.773 173.907 557.722 169.962C602.225 165.456 645.896 165.526 687.523 170.173C749.35 177.077 808.334 194.61 862.829 222.288C885.831 233.997 908.402 246.382 930.232 258.361C935.772 261.402 941.503 264.545 947.145 267.627C1010.58 302.274 1068.56 332.82 1135.81 355.778C1159.25 363.786 1183.89 371.361 1209.04 378.295C1240.48 386.909 1271.46 394.284 1301.14 400.212C1347.66 409.506 1405.56 421.07 1462.65 412.209C1493.1 407.483 1516.84 397.795 1535.22 382.588C1569.85 353.937 1579.87 310.754 1587.92 276.054C1591.06 262.537 1594.02 249.772 1598.03 239.381C1599.3 236.106 1600.58 232.731 1601.81 229.467C1608.22 212.507 1614.86 194.969 1624.81 178.01C1640.17 151.618 1669.35 116.313 1721.14 97.991C1735.45 92.9323 1750.2 89.2076 1766.25 86.6056C1808.24 79.7 1858.23 81.9344 1914.84 93.2427C1959.61 102.187 2002.64 117.149 2039.3 136.515C2080.3 158.123 2115.43 185.371 2143.71 217.509C2156.69 232.249 2168.15 247.993 2177.8 264.303C2187.01 279.882 2194.61 296.06 2200.38 312.387L2199.04 312.559C2173.59 240.614 2116.53 178.314 2038.39 137.133C2001.87 117.841 1959 102.935 1914.4 94.0242C1858.06 82.7665 1808.33 80.5387 1766.61 87.4003C1750.68 89.9825 1736.03 93.6786 1721.84 98.6998C1670.41 116.894 1641.39 152.019 1626.1 178.281C1616.18 195.196 1609.56 212.71 1603.15 229.647C1601.91 232.912 1600.64 236.289 1599.37 239.566C1595.37 249.922 1592.41 262.67 1589.28 276.166C1585.23 293.627 1580.64 313.417 1572.79 332.096C1563.77 353.559 1551.84 370.234 1536.33 383.072C1527.48 390.396 1517.12 396.573 1505.56 401.429C1493.1 406.662 1478.78 410.558 1462.99 413.006C1449.14 415.159 1434.67 416.233 1419.33 416.233Z" fill="#FFE492"/>
<path d="M1440.44 420.351C1425.08 420.351 1408.89 419.155 1391.6 416.758C1363.58 412.877 1336.62 406.436 1312.83 400.752C1282.88 393.598 1251.87 385.014 1220.64 375.238C1195.62 367.368 1171.1 358.876 1147.79 349.993C1083.62 325.569 1028.59 294.09 970.323 260.766C967.44 259.117 964.556 257.466 961.665 255.815C934.57 240.335 906.555 224.327 877.349 209.534C822.092 181.601 761.544 165.197 697.387 160.776C616.8 155.222 529.857 167.904 438.967 198.466C393.504 213.752 347.868 233.02 310.466 252.72C282.224 267.594 259.573 284.331 235.592 302.052C232.752 304.15 229.905 306.255 227.036 308.363C221.305 312.583 214.487 317.587 207.349 322.705C194.129 332.208 176.117 344.285 153.964 353.37C129.969 363.212 104.87 368.229 77.2325 368.702C54.5155 369.044 29.4463 366.937 0.58844 362.259C-24.1877 358.244 -48.1541 352.996 -74.6743 347.052C-98.8824 341.56 -124.432 335.887 -147.354 332.14C-215.252 321.041 -286.971 311.322 -360.516 303.248L-360.252 302.382C-286.664 310.459 -214.904 320.187 -146.969 331.291C-123.985 335.048 -98.3988 340.73 -74.1613 346.227C-29.7094 356.192 25.6137 368.599 77.1922 367.822C136.161 366.809 174.058 345.267 206.224 322.137C213.358 317.024 220.173 312.022 225.9 307.804C228.769 305.695 231.616 303.591 234.452 301.495C258.473 283.746 281.165 266.98 309.499 252.057C346.978 232.318 392.701 213.012 438.252 197.697C529.417 167.043 616.661 154.328 697.555 159.902C728.571 162.04 759.037 167.004 788.101 174.656C819.285 182.865 849.63 194.375 878.294 208.862C907.533 223.671 935.567 239.688 962.677 255.179C965.568 256.832 968.455 258.481 971.338 260.13C1029.55 293.425 1084.53 324.874 1148.57 349.251C1171.86 358.121 1196.33 366.602 1221.32 374.459C1252.5 384.22 1283.47 392.792 1313.37 399.935C1360.37 411.162 1418.86 425.134 1476.69 417.031C1508.02 412.641 1531.91 402.894 1549.73 387.233C1584.05 357.321 1590.16 311.628 1595.07 274.914C1596.83 261.783 1598.49 249.381 1601.24 239.351C1601.81 237.282 1602.38 235.202 1602.95 233.11C1608.08 214.221 1613.4 194.686 1622.63 175.622C1635.82 148.202 1662.2 111.021 1713.06 89.6066C1727.25 83.6321 1742.05 79.0357 1758.32 75.5532C1780.93 70.6684 1806.13 68.3724 1833.21 68.7246C1857.93 69.046 1884.33 71.571 1911.67 76.2268C1958.05 84.123 2002.4 98.4692 2039.92 117.713C2081.93 139.216 2117.33 166.729 2145.14 199.483C2157.9 214.511 2168.94 230.579 2177.97 247.239C2186.62 263.194 2193.45 279.735 2198.26 296.401L2196.82 296.551C2175.84 223.926 2118.3 158.987 2038.97 118.383C2001.61 99.2221 1957.45 84.9353 1911.27 77.0699C1854.32 67.3708 1801.61 67.133 1758.81 76.3787C1742.66 79.8348 1727.97 84.396 1713.9 90.3242C1663.39 111.591 1637.15 148.581 1624.04 175.864C1614.83 194.877 1609.52 214.383 1604.39 233.249C1603.82 235.34 1603.25 237.423 1602.69 239.492C1599.94 249.484 1598.29 261.871 1596.53 274.982C1591.6 311.802 1585.47 357.627 1550.93 387.731C1542.34 395.279 1532.07 401.597 1520.41 406.504C1507.86 411.783 1493.26 415.613 1477.02 417.889C1465.3 419.527 1453.16 420.351 1440.44 420.351Z" fill="#FFE492"/>
<path d="M1460.27 424.637C1442.77 424.637 1424.24 422.937 1404.27 419.525C1376.01 414.698 1348.88 407.158 1324.95 400.508C1294.71 392.103 1263.71 382.318 1232.81 371.43C1207.97 362.647 1183.62 353.245 1160.44 343.491C1103.36 319.478 1054.59 290.062 1002.94 258.917C994.499 253.825 985.768 248.562 977.106 243.387C946.658 225.203 920.658 210.21 892.749 196.146C836.507 167.843 774.182 152.506 707.5 150.56C623.711 148.114 533.961 165.989 440.748 203.687C394.442 222.417 348.847 245.377 312.365 268.341C284.881 285.641 263.395 304.474 240.649 324.412C237.831 326.882 235.002 329.36 232.155 331.841C227.084 336.268 220.372 342.102 213.443 347.951C184.285 372.623 146.19 398.025 84.7408 399.324C82.8245 399.361 80.9009 399.379 78.981 399.379C30.9969 399.379 -17.9911 387.969 -68.1075 375.23L-71.2366 374.428C-96.0604 368.062 -119.51 362.05 -141.216 357.674C-223.015 341.182 -302.125 327.26 -361.907 316.975L-361.479 316.075C-301.682 326.364 -222.55 340.288 -140.721 356.787C-118.957 361.174 -95.4815 367.195 -70.6248 373.568L-67.4993 374.369C-15.5471 387.575 35.1886 399.354 84.6859 398.39C145.454 397.105 183.23 371.899 212.172 347.411C219.097 341.567 225.802 335.738 230.873 331.313C233.72 328.83 236.545 326.353 239.363 323.883C262.145 303.915 283.664 285.052 311.236 267.696C347.792 244.683 393.479 221.677 439.876 202.91C482.939 185.493 526.017 172.12 567.912 163.158C615.98 152.876 662.971 148.324 707.573 149.624C774.599 151.579 837.24 166.991 893.746 195.426C921.695 209.512 947.721 224.521 978.198 242.72C986.864 247.895 995.595 253.161 1004.04 258.252C1055.63 289.366 1104.37 318.754 1161.33 342.718C1184.48 352.461 1208.79 361.848 1233.59 370.618C1264.45 381.493 1295.4 391.262 1325.6 399.654C1373.01 412.829 1432.01 429.224 1490.73 421.843C1522.82 417.808 1546.87 408.003 1564.23 391.87C1598.11 360.595 1600.15 312.331 1601.79 273.549C1602.32 260.896 1602.83 248.943 1604.45 239.312L1604.48 239.092C1608.11 217.525 1611.85 195.225 1620.45 173.223C1627.89 154.032 1638.25 136.777 1651.25 121.936C1665.91 105.203 1683.98 91.5023 1704.96 81.211C1719 74.3251 1733.86 68.8548 1750.37 64.4895C1794.99 52.6264 1849.66 50.7949 1908.49 59.1975C1932.16 62.5788 1955.51 67.7013 1977.9 74.4198C2000.41 81.1779 2021.49 89.4176 2040.54 98.9054C2083.57 120.305 2119.24 148.077 2146.56 181.452C2171.12 211.449 2188.26 245.669 2196.14 280.409L2194.6 280.534C2177.74 206.182 2121.23 140.242 2039.54 99.6253C2001.35 80.6012 1955.9 66.9352 1908.13 60.1132C1849.64 51.7591 1795.31 53.5708 1751.01 65.3524C1734.62 69.6847 1719.89 75.111 1705.95 81.9418C1666.77 101.157 1637.73 132.797 1621.97 173.441C1613.4 195.386 1609.66 217.655 1606.04 239.191L1606 239.411C1604.39 249.007 1603.88 260.942 1603.35 273.578C1601.7 312.478 1599.66 360.888 1565.53 392.383C1557.16 400.162 1546.96 406.617 1535.23 411.565C1522.58 416.901 1507.72 420.668 1491.04 422.766C1481.11 424.012 1470.88 424.637 1460.27 424.637Z" fill="#FFE492"/>
<path d="M85.8798 430.027C64.4233 430.027 41.0578 427.516 14.6879 422.387C-11.5135 417.29 -37.4256 410.255 -61.5275 403.413C-65.8914 402.167 -70.2222 400.923 -74.5238 399.688C-95.9363 393.54 -116.162 387.733 -135.064 383.209C-210.437 365.178 -282.281 348.971 -351.762 333.302L-363.274 330.705L-362.696 329.778L-351.183 332.375C-281.699 348.049 -209.843 364.255 -134.456 382.291C-115.502 386.826 -95.2512 392.64 -73.813 398.797C-69.515 400.032 -65.1842 401.276 -60.824 402.519C-11.3487 416.564 41.2154 430.175 92.1966 428.962C154.866 427.395 192.422 398.064 218.136 372.689C224.724 366.199 231.07 359.732 235.863 354.823C238.508 352.117 241.135 349.414 243.755 346.717C265.483 324.363 286.005 303.247 312.994 283.338C348.62 257.063 394.262 230.352 441.521 208.129C485.365 187.511 529.608 171.221 573.026 159.713C622.828 146.511 671.471 139.661 717.605 139.35C787.024 138.729 851.499 153.078 909.215 181.992C941.209 198.04 969.895 215.4 993.74 230.266C1006.71 238.356 1019.69 246.648 1032.24 254.668C1076.66 283.059 1122.59 312.414 1174.1 336.19C1197.11 346.814 1221.27 357.108 1245.88 366.783C1276.35 378.729 1307.29 389.696 1337.85 399.378C1385.61 414.51 1445.05 433.343 1504.77 426.659C1537.64 422.981 1561.84 413.119 1578.74 396.51C1612.18 363.817 1609.92 312.909 1608.1 272.003C1607.57 259.907 1607.06 248.48 1607.67 239.28C1609.04 218.541 1611.11 194.439 1618.28 170.832C1624.33 150.828 1633.45 132.731 1645.4 117.044C1658.92 99.2988 1676.25 84.4221 1696.89 72.8254C1710.57 65.1405 1725.9 58.6178 1742.45 53.4359C1766.06 46.0173 1792.57 41.3527 1821.22 39.574C1848.06 37.9076 1876.35 38.7837 1905.32 42.176C1929.74 45.0377 1953.82 49.7442 1976.88 56.1678C2000.08 62.6309 2021.71 70.6834 2041.17 80.1008C2063.6 90.9447 2084.22 103.75 2102.47 118.162C2119.75 131.817 2135.07 147.046 2148 163.424C2172.19 194.065 2188.11 228.991 2194.03 264.422L2192.39 264.521C2179.67 188.436 2124.18 121.499 2040.13 80.8735C2001.64 62.2457 1953.66 48.8483 1905 43.149C1844.84 36.1025 1788.9 39.9636 1743.21 54.3142C1726.79 59.4544 1711.58 65.9263 1698.01 73.5496C1659.12 95.4002 1632.83 128.189 1619.9 171.01C1612.75 194.553 1610.68 218.614 1609.31 239.32C1608.71 248.486 1609.21 259.896 1609.75 271.977C1610.64 292.157 1611.66 315.031 1608.26 337.144C1604.31 362.803 1595.12 382.39 1580.15 397.027C1572 405.035 1561.88 411.628 1550.07 416.621C1537.32 422.014 1522.18 425.719 1505.08 427.632C1496.45 428.599 1487.83 429.037 1479.26 429.037C1427.93 429.037 1378.2 413.28 1337.08 400.252C1306.48 390.555 1275.49 379.572 1244.99 367.608C1220.33 357.92 1196.14 347.611 1173.1 336.972C1121.48 313.147 1075.5 283.761 1031.04 255.344C1018.49 247.326 1005.52 239.036 992.557 230.951C968.744 216.102 940.099 198.767 908.163 182.75C850.759 153.989 786.661 139.724 717.631 140.336C609.223 141.067 508.199 178.026 442.539 208.904C395.376 231.083 349.825 257.737 314.277 283.959C287.368 303.809 266.875 324.891 245.181 347.21C242.561 349.907 239.93 352.61 237.285 355.318C232.488 360.229 226.139 366.701 219.547 373.197C208.753 383.85 191.807 399.356 169.361 410.979C158.46 416.623 146.86 421.059 134.882 424.165C121.527 427.628 107.186 429.574 92.2662 429.946C90.1521 430.001 88.0233 430.027 85.8798 430.027Z" fill="#FFE492"/>
<path d="M92.7689 460.675C71.2867 460.675 47.9689 457.97 21.7381 452.449C-5.41959 446.734 -32.2696 438.699 -54.9499 431.591C-61.9189 429.403 -68.8731 427.184 -75.6003 425.037C-94.4041 419.039 -112.167 413.37 -128.915 408.743C-189.06 392.123 -248.813 375.897 -306.602 360.203C-325.717 355.012 -345.481 349.646 -364.637 344.433L-363.919 343.48C-344.763 348.692 -324.999 354.059 -305.884 359.25C-248.095 374.943 -188.335 391.172 -128.186 407.794C-111.394 412.435 -93.609 418.107 -74.7832 424.115C-68.0598 426.261 -61.1054 428.478 -54.1438 430.666C-7.10507 445.402 47.4559 461.001 99.7012 459.533C163.847 457.688 199.876 425.66 224.102 397.965C230.313 390.87 236.318 383.747 240.854 378.333C243.184 375.555 245.5 372.779 247.812 370.01C268.594 345.102 288.222 321.576 314.757 298.984C349.269 269.6 394.875 239.188 443.167 213.351C510.42 177.524 614.364 133.823 727.634 129.084C799.669 125.988 865.969 139.271 924.685 168.567C951.066 181.735 977.154 196.925 1009.28 217.822C1025.52 228.382 1041.63 239.327 1057.21 249.909C1097.74 277.441 1139.65 305.911 1186.88 329.675C1209.75 341.19 1233.74 352.388 1258.17 362.959C1287.76 375.747 1318.68 387.912 1350.09 399.116C1398.34 416.223 1458.38 437.517 1518.82 431.489C1551.95 428.254 1576.99 418.05 1593.25 401.166C1626.22 366.994 1619.15 311.089 1613.98 270.269C1612.53 258.813 1611.16 247.994 1610.89 239.265C1610.29 219.867 1610.34 194.29 1616.12 168.457C1626.09 123.692 1650.55 88.6998 1688.81 64.4563C1702.22 55.9151 1717.61 48.4944 1734.52 42.3988C1758.59 33.7167 1785.74 27.8765 1815.23 25.0434C1843.02 22.3753 1872.26 22.4172 1902.14 25.1689C1927.36 27.5419 1952.16 31.8434 1975.85 37.9499C1999.78 44.1181 2021.96 51.9769 2041.8 61.3084C2064.73 72.0906 2085.68 84.9399 2104.06 99.5018C2121.49 113.302 2136.75 128.747 2149.44 145.411C2173.26 176.697 2187.95 212.328 2191.92 248.452L2190.18 248.52C2181.62 170.698 2127.15 102.762 2040.73 62.1339C2001.55 43.702 1952.23 30.9408 1901.88 26.2035C1839.81 20.491 1782.25 26.4016 1735.42 43.297C1718.64 49.3419 1703.39 56.7032 1690.08 65.1762C1652.07 89.2589 1627.77 124.053 1617.85 168.598C1612.09 194.36 1612.04 219.887 1612.63 239.248C1612.91 247.945 1614.27 258.752 1615.72 270.192C1618.39 291.292 1621.42 315.21 1619.69 338.56C1617.67 365.748 1609.52 386.399 1594.76 401.692C1586.82 409.94 1576.78 416.677 1564.91 421.713C1552.05 427.175 1536.64 430.811 1519.11 432.524C1491.92 435.234 1462.66 432.799 1429.65 425.079C1400.96 418.367 1373.47 408.62 1349.21 400.021C1317.76 388.801 1286.79 376.619 1257.16 363.813C1232.69 353.227 1208.67 342.013 1185.76 330.483C1138.44 306.671 1096.48 278.17 1055.9 250.609C1040.33 240.029 1024.23 229.091 1008.01 218.54C975.934 197.68 949.894 182.519 923.575 169.381C865.207 140.253 799.328 127.049 727.751 130.125C614.969 134.847 511.369 178.414 444.317 214.133C396.121 239.917 350.61 270.265 316.172 299.587C289.71 322.115 270.111 345.608 249.362 370.479C247.05 373.251 244.734 376.026 242.404 378.805C237.864 384.222 231.855 391.352 225.637 398.454C201.198 426.396 164.807 458.709 99.7782 460.578C97.4662 460.642 95.1248 460.675 92.7689 460.675Z" fill="#FFE492"/>
<path d="M99.7962 491.324C41.0986 491.324 -20.49 469.665 -75.0876 450.463C-91.8651 444.563 -107.712 438.989 -122.771 434.276L-366 358.16L-365.154 357.185L-121.925 433.301C-106.825 438.025 -90.9601 443.606 -74.1606 449.514C-17.4525 469.458 46.8254 492.064 107.205 490.105C172.765 487.98 207.302 453.256 230.067 423.245C237.512 413.429 244.701 403.442 251.655 393.782C270.675 367.366 290.34 340.05 316.512 314.626C337.294 294.44 363.111 273.27 391.17 253.407C421.952 231.616 454.91 211.623 489.121 193.986C526.842 174.541 565.197 158.456 603.116 146.179C645.058 132.601 686.377 123.736 725.934 119.829C805.176 112.003 877.247 123.879 940.14 155.132C992.407 181.101 1036.83 213.215 1079.79 244.271C1117.19 271.304 1155.85 299.254 1199.64 323.148C1250.21 350.744 1304.95 376.211 1362.33 398.839C1410.68 417.905 1470.85 441.635 1532.86 436.301C1585.24 431.797 1615.52 410.744 1625.43 371.934C1633.87 338.923 1625.84 299.763 1619.4 268.299C1617.2 257.576 1615.13 247.448 1614.11 239.234C1608.49 193.957 1612.07 156.58 1625.06 124.971C1633.16 105.249 1645.12 87.6694 1660.6 72.72C1677.89 56.0206 1700.09 42.0992 1726.59 31.3434C1749.5 22.0383 1775.33 15.2802 1803.36 11.2561C1830.04 7.42579 1858.12 6.1424 1886.84 7.4412C1943.32 9.99477 1998.57 22.4456 2042.41 42.4977C2065.84 53.2161 2087.12 66.1116 2105.65 80.8232C2123.21 94.7665 2138.42 110.429 2150.86 127.38C2174.3 159.31 2187.76 195.648 2189.79 232.461L2187.96 232.498C2183.64 154.104 2128.81 83.4032 2041.3 43.376C1948.36 0.867969 1816.43 -3.80989 1727.6 32.257C1639.61 67.9849 1603.08 135.661 1615.93 239.153C1616.94 247.34 1619.02 257.455 1621.21 268.165C1627.67 299.697 1635.71 338.94 1627.24 372.101C1622.62 390.163 1613.35 404.679 1599.67 415.248C1591.97 421.189 1582.7 426.045 1572.1 429.678C1560.82 433.543 1547.7 436.139 1533.12 437.393C1527.16 437.906 1521.09 438.164 1514.93 438.164C1492.45 438.164 1468.52 434.75 1442.29 427.833C1412.74 420.04 1384.23 408.796 1361.32 399.761C1303.86 377.101 1249.05 351.6 1198.4 323.964C1154.51 300.02 1115.81 272.037 1078.37 244.976C1035.47 213.959 991.099 181.885 938.964 155.982C876.492 124.943 804.915 113.143 726.22 120.916C567.032 136.638 403.053 232.652 318.058 315.207C291.956 340.56 272.317 367.839 253.322 394.22C246.364 403.884 239.172 413.879 231.719 423.703C216.605 443.628 201.678 457.895 184.743 468.597C174.172 475.276 162.704 480.542 150.657 484.247C137.261 488.366 122.671 490.708 107.289 491.208C104.805 491.285 102.302 491.324 99.7962 491.324Z" fill="#FFE492"/>
</g>
</svg>
